<?xml version="1.0" standalone="no"?>
<!DOCTYPE svg PUBLIC "-//W3C//DTD SVG 20010904//EN"
 "http://www.w3.org/TR/2001/REC-SVG-20010904/DTD/svg10.dtd">
<svg version="1.0" xmlns="http://www.w3.org/2000/svg"
 width="642.000000pt" height="716.000000pt" viewBox="0 0 642.000000 716.000000"
 preserveAspectRatio="xMidYMid meet">

<g transform="translate(0.000000,716.000000) scale(0.100000,-0.100000)"
fill="#000000" stroke="none">
<path d="M0 7114 l0 -46 133 6 c72 3 202 8 287 11 212 6 436 15 550 20 52 3
198 7 323 11 206 6 229 5 247 -11 15 -13 22 -14 37 -5 16 10 16 11 -5 6 -33
-7 -25 26 8 34 l25 6 -25 7 c-14 4 -375 7 -802 7 l-778 0 0 -46z"/>
<path d="M2740 7152 c0 -4 -17 -16 -37 -27 -21 -10 -57 -32 -81 -47 -24 -15
-45 -28 -48 -28 -11 0 -158 -102 -239 -166 -294 -234 -478 -586 -585 -1119 -6
-33 -18 -89 -26 -124 -17 -71 -39 -195 -54 -298 -5 -37 -12 -79 -16 -93 -3
-14 -12 -61 -20 -106 -8 -44 -20 -102 -29 -129 -15 -51 -12 -75 4 -34 8 21 10
21 10 4 0 -11 -4 -51 -10 -90 -5 -38 -12 -92 -15 -120 -7 -80 -44 -356 -54
-400 -5 -22 -14 -74 -20 -115 -6 -41 -15 -90 -20 -107 -5 -23 -5 -33 3 -33 8
0 7 -4 -1 -12 -7 -7 -12 -35 -12 -62 0 -28 -5 -70 -10 -94 -12 -49 1 -85 25
-76 20 8 19 -16 -1 -31 -10 -6 -18 -24 -20 -39 -2 -24 -37 -65 -56 -66 -5 0
-8 -7 -8 -16 0 -8 -4 -12 -10 -9 -5 3 -10 1 -10 -5 0 -6 -4 -8 -10 -5 -6 3 -7
-1 -4 -10 4 -10 2 -15 -6 -13 -6 2 -19 -8 -28 -21 -16 -24 -16 -24 6 -19 23 6
23 6 6 -20 -22 -36 -43 -52 -68 -52 -33 0 -144 -49 -171 -75 -17 -18 -31 -24
-48 -20 -17 5 -40 -5 -82 -34 -54 -35 -137 -111 -123 -111 2 0 43 23 89 50 97
58 160 83 273 110 107 25 152 45 159 70 6 22 41 28 53 9 4 -8 12 -3 20 12 19
34 17 42 -8 34 -47 -14 -98 -22 -98 -15 0 4 9 15 20 25 11 10 20 23 20 30 0 6
17 20 38 30 20 11 40 21 43 23 3 1 4 -12 2 -30 -4 -31 -3 -32 11 -14 9 11 16
26 16 33 0 7 5 13 10 13 6 0 10 -6 10 -12 0 -24 -21 -88 -29 -88 -4 0 -22 -38
-41 -85 -19 -51 -43 -94 -59 -108 -15 -12 -25 -30 -23 -39 2 -10 -4 -28 -12
-40 -9 -12 -16 -30 -16 -40 0 -21 -16 -24 -24 -5 -3 6 -5 -1 -4 -18 0 -16 -4
-43 -11 -58 -6 -16 -11 -35 -11 -43 0 -8 -4 -14 -9 -14 -5 0 -9 20 -9 45 0 27
-6 51 -16 61 -20 19 -20 18 3 84 11 30 18 56 17 58 -2 1 -44 -6 -93 -17 -67
-14 -112 -32 -179 -71 -49 -28 -98 -60 -109 -70 -18 -18 -18 -20 -2 -20 10 0
15 5 12 10 -3 6 3 10 14 10 12 0 24 0 28 1 18 2 12 -20 -7 -24 -18 -4 -18 -5
2 -3 17 1 23 7 22 24 0 16 4 21 13 18 8 -3 12 -2 9 3 -3 4 8 21 24 36 33 32
42 21 11 -12 -11 -12 -17 -23 -14 -26 3 -3 -4 -16 -16 -28 -27 -29 -28 -75 -2
-82 10 -2 33 2 51 9 56 24 60 20 60 -46 0 -70 12 -81 67 -60 37 13 86 54 96
80 3 8 4 -3 2 -25 -2 -39 -6 -55 -26 -103 -5 -13 -7 -28 -4 -33 4 -5 -1 -9
-10 -9 -9 0 -14 -4 -10 -9 5 -10 -11 -24 -31 -27 -6 -1 -28 -10 -48 -19 -20
-10 -39 -16 -41 -13 -3 2 -7 38 -11 79 -4 43 -13 81 -22 92 -18 20 -55 23 -69
5 -14 -18 -30 -73 -38 -131 -7 -54 -29 -79 -83 -95 -21 -7 -59 -25 -84 -42
-26 -17 -59 -32 -75 -33 -24 -2 -28 -6 -25 -30 2 -15 -1 -27 -6 -27 -5 0 -13
-19 -16 -42 -9 -49 -23 -125 -28 -150 -2 -10 -7 -21 -11 -24 -4 -4 -7 -13 -7
-19 0 -17 36 -56 44 -48 3 3 6 40 6 82 0 96 10 181 21 181 5 0 9 -47 9 -105 0
-58 4 -113 9 -123 32 -62 34 -73 23 -84 -18 -18 -15 -92 5 -114 40 -43 115
-56 178 -30 18 8 36 12 39 8 3 -3 6 2 6 11 0 10 4 17 9 17 17 0 58 76 64 118
3 24 13 52 23 63 24 26 30 108 10 134 -15 19 -15 19 -16 -7 0 -26 -3 -28 -42
-28 -24 0 -38 4 -32 8 6 4 14 17 18 30 4 12 12 22 17 22 5 0 9 7 9 16 0 14 3
14 16 3 21 -17 34 3 34 53 l0 38 48 -6 c51 -7 88 -29 61 -38 -39 -13 -40 -16
-4 -12 37 3 38 3 13 -7 -28 -11 -39 -49 -18 -62 12 -7 14 -55 2 -55 -4 0 -16
14 -26 31 -10 17 -20 28 -23 25 -3 -3 5 -19 17 -36 17 -24 21 -40 16 -68 -3
-22 -2 -31 3 -23 6 9 11 10 15 2 11 -16 -20 -42 -41 -35 -11 4 -14 3 -7 -3 6
-4 14 -25 18 -45 8 -45 8 -49 -1 -45 -5 1 -7 6 -5 11 2 5 -4 4 -12 -4 -19 -15
-21 -34 -4 -24 10 5 10 4 2 -5 -6 -6 -34 -14 -62 -18 -29 -3 -58 -13 -64 -21
-11 -13 -10 -15 3 -10 13 5 16 2 12 -13 -3 -11 -15 -19 -27 -20 -19 -1 -18 -2
4 -8 25 -7 25 -7 -6 -14 -26 -5 -31 -10 -29 -31 2 -19 -2 -26 -13 -27 -14 0
-13 -2 3 -9 18 -8 17 -9 -7 -9 -15 -1 -39 4 -53 9 -22 8 -34 6 -61 -11 -47
-29 -64 -56 -64 -104 0 -38 -13 -65 -32 -65 -4 0 -8 9 -8 20 0 11 -5 20 -11
20 -6 0 -8 -7 -5 -16 3 -9 6 -25 6 -37 0 -16 3 -18 9 -9 5 9 13 -16 20 -70 15
-108 17 -117 29 -155 9 -28 8 -31 -6 -26 -10 3 -22 12 -28 19 -8 11 -11 -30
-11 -158 0 -95 2 -148 4 -118 4 84 14 162 19 157 5 -5 40 -130 47 -167 3 -17
5 -13 6 15 1 22 9 51 17 65 l15 25 -6 -27 c-3 -16 -2 -28 3 -28 4 0 14 -16 21
-36 11 -31 11 -38 -5 -55 -9 -10 -14 -22 -11 -25 4 -4 9 1 13 10 3 9 10 16 16
16 5 0 -1 -15 -14 -32 -13 -18 -23 -42 -24 -53 -2 -40 -4 -45 -19 -45 -24 0
-32 -30 -39 -138 -7 -121 1 -215 18 -205 8 5 8 3 0 -8 -28 -37 -49 -398 -24
-414 18 -11 51 16 57 45 3 16 9 27 14 24 5 -2 6 -19 2 -36 -5 -23 -2 -34 12
-45 14 -9 15 -13 4 -13 -26 0 -42 -18 -49 -56 l-8 -39 -1 42 c-1 31 -6 45 -20
53 -11 5 -22 10 -25 10 -13 0 -5 -35 11 -53 16 -17 16 -20 1 -31 -14 -10 -16
-32 -15 -148 2 -108 5 -134 15 -126 6 6 12 23 12 39 0 56 15 28 38 -71 l23
-100 375 0 c234 0 374 4 374 10 0 5 -13 24 -28 42 -16 18 -32 41 -35 51 -4 10
-11 16 -16 13 -10 -6 -61 73 -73 112 -3 12 -3 36 2 52 5 19 5 28 -1 25 -5 -4
-9 4 -9 17 0 19 -2 20 -10 8 -8 -11 -9 -9 -8 12 1 16 6 28 10 28 4 0 7 17 7
38 -1 37 -1 37 -9 7 l-8 -30 -1 33 c-1 22 4 32 14 32 8 0 15 5 15 10 0 6 -6
10 -12 10 -9 0 -8 4 2 10 12 8 12 12 2 18 -16 11 -14 285 4 327 12 29 12 29
16 5 2 -21 9 -26 40 -28 53 -5 112 29 143 81 34 58 36 160 5 177 -23 12 -52 6
-90 -20 -14 -9 -42 -28 -62 -41 -29 -18 -38 -32 -41 -59 -3 -19 -4 -5 -3 32 0
38 4 68 9 68 4 0 6 12 5 28 -1 25 25 151 56 262 11 40 15 45 44 48 24 2 32 8
32 23 0 11 30 48 69 87 73 70 91 106 75 151 -9 23 -15 26 -61 26 -33 0 -49 3
-43 10 6 5 10 20 10 35 0 14 7 34 15 44 8 11 15 30 15 43 0 13 4 31 9 41 18
34 36 87 33 100 -2 6 5 12 15 12 11 0 14 3 7 8 -6 4 -9 15 -5 24 7 20 30 -26
56 -114 9 -32 21 -58 26 -58 5 0 9 -29 9 -64 0 -36 3 -67 8 -69 4 -3 6 -36 4
-75 -3 -63 -6 -71 -29 -83 -15 -8 -39 -32 -55 -54 -24 -33 -37 -41 -70 -45
-36 -4 -44 -10 -62 -45 -26 -51 -34 -152 -13 -190 8 -17 39 -42 73 -60 45 -25
64 -43 81 -76 13 -24 35 -55 50 -68 26 -22 27 -28 26 -100 -1 -42 -2 -97 -3
-123 0 -59 -19 -64 -50 -13 -37 60 -63 64 -123 22 -24 -16 -33 -18 -53 -8 -74
34 -105 -26 -67 -132 l17 -47 -33 -30 c-28 -26 -32 -36 -30 -73 2 -24 -3 -58
-10 -75 -11 -27 -11 -40 -1 -78 15 -53 38 -78 97 -104 36 -16 44 -25 63 -77
37 -100 77 -128 163 -112 32 5 37 4 37 -12 0 -16 8 -19 50 -19 l51 0 -6 53
c-4 28 -8 58 -10 64 -3 8 4 13 15 13 12 0 20 -7 20 -17 0 -9 11 -35 25 -59 18
-30 21 -44 12 -47 -6 -2 48 -5 120 -6 l133 -2 -5 53 c-2 29 -9 98 -13 153 -12
126 -3 329 15 358 3 6 7 26 9 46 5 58 25 192 36 241 14 62 21 100 22 132 1 14
5 24 10 21 4 -3 5 4 2 15 -4 11 -2 23 3 27 7 4 7 14 1 30 -10 25 -4 55 10 55
4 0 7 25 7 56 0 34 4 59 12 63 13 9 23 91 11 91 -13 0 -19 -55 -7 -63 7 -5 1
-5 -12 -2 -16 5 -21 4 -16 -4 4 -7 1 -18 -5 -26 -6 -8 -9 -19 -5 -24 3 -6 2
-19 -4 -28 -7 -13 -9 17 -8 99 1 65 6 118 11 118 4 0 5 19 2 43 -13 92 -16
152 -6 132 7 -16 9 -13 6 15 -1 20 -6 41 -10 48 -14 24 13 12 47 -21 l35 -32
-5 35 -4 35 15 -33 c18 -38 36 -34 36 6 0 15 4 32 8 38 7 11 45 34 56 34 15 0
54 -52 51 -67 -2 -10 -4 -31 -4 -46 -1 -33 -32 -48 -73 -36 -16 4 -28 4 -28
-1 0 -6 -12 -5 -27 0 -25 9 -26 8 -11 -3 10 -8 15 -17 11 -20 -3 -4 3 -7 15
-7 11 0 24 -4 27 -10 8 -13 64 -1 88 19 10 9 25 28 33 43 18 36 19 132 0 147
-19 16 -30 -3 -16 -28 5 -11 10 -30 10 -43 0 -23 0 -23 -13 -2 -21 37 -51 79
-62 86 -6 5 -4 8 6 8 8 0 20 -5 27 -12 8 -8 12 -9 12 -1 0 6 -6 13 -12 16 -10
3 -10 8 2 22 14 17 16 28 19 108 0 23 5 36 11 32 6 -3 10 5 10 19 0 23 4 20
52 -30 46 -49 50 -57 40 -78 -14 -32 -6 -61 24 -76 51 -28 91 13 178 185 57
112 67 153 42 174 -8 6 -16 20 -19 30 -5 19 7 26 58 37 20 5 20 5 0 -10 -19
-14 -18 -15 12 -14 24 1 30 5 25 16 -3 10 -1 13 7 8 6 -4 10 -4 9 1 -2 5 6 25
16 45 17 32 21 34 31 21 17 -23 53 -11 102 34 41 38 55 44 68 31 4 -4 18 -3
31 2 19 8 24 6 25 -8 0 -10 3 -12 6 -4 13 32 22 6 17 -50 -7 -78 9 -121 66
-172 71 -64 104 -69 154 -26 19 17 40 28 49 25 15 -6 53 72 78 161 7 27 20 46
35 53 32 14 82 86 90 127 3 19 10 34 14 34 7 0 72 139 70 153 0 4 6 20 15 37
8 16 15 49 15 73 0 40 3 46 35 63 l35 19 0 77 c0 70 2 78 19 78 15 0 20 -10
26 -55 4 -37 11 -55 20 -55 8 0 57 26 109 58 81 48 96 61 96 83 0 42 -12 89
-23 89 -5 0 -32 -13 -58 -30 -27 -16 -49 -25 -49 -20 0 6 20 23 45 38 44 26
45 28 45 79 0 28 -4 54 -8 57 -5 3 -27 -6 -51 -20 -49 -27 -51 -28 -51 -14 0
6 30 25 66 43 l66 32 -7 49 c-3 28 -9 54 -11 58 -8 12 -71 -27 -119 -73 -31
-29 -52 -40 -87 -45 -61 -8 -71 -16 -71 -53 0 -33 -11 -41 -21 -15 -14 35 -6
62 19 68 34 9 57 47 53 88 -3 34 -16 39 -73 27 -18 -4 -20 0 -16 51 2 30 8 58
13 61 5 3 0 9 -11 12 -17 4 -20 12 -18 36 4 34 25 64 39 55 5 -3 17 1 26 9 9
8 27 18 39 21 11 4 24 17 27 29 3 12 19 31 36 42 35 23 38 35 10 35 -11 0 -20
2 -20 5 0 14 82 113 98 119 9 3 23 9 31 12 9 5 11 3 6 -6 -5 -9 -4 -11 4 -6 6
4 9 11 7 15 -3 3 10 17 29 29 25 18 44 22 81 20 34 -2 48 -7 46 -16 -1 -8 2
-11 7 -8 5 3 36 -1 68 -9 33 -8 96 -16 141 -18 l81 -2 -4 -30 c-2 -16 -2 -24
1 -17 3 6 13 12 22 12 12 0 13 -3 4 -12 -7 -7 -12 -19 -11 -28 0 -8 3 -10 5
-4 5 13 45 6 55 -9 11 -16 62 1 55 18 -8 22 7 18 21 -5 9 -14 10 -21 1 -26 -7
-4 -8 -3 -4 4 8 14 -3 15 -22 3 -21 -13 -19 -23 7 -33 23 -8 23 -9 6 -28 -19
-21 -60 -27 -70 -9 -4 6 -1 10 6 8 8 -1 21 -1 29 0 13 1 13 3 1 10 -9 6 -22 6
-33 0 -24 -13 -38 -4 -33 23 3 11 2 18 -2 14 -3 -3 -13 0 -21 7 -13 10 -14 9
-7 -3 13 -21 15 -40 5 -40 -14 0 -25 23 -22 47 4 28 -29 49 -92 57 -27 3 -57
13 -66 21 -22 20 -63 19 -102 -1 -36 -19 -28 -27 37 -38 44 -8 206 -71 245
-95 34 -21 107 -79 154 -121 21 -19 43 -34 48 -32 5 1 7 -1 4 -6 -3 -5 6 -24
20 -43 62 -83 132 -233 214 -459 30 -82 34 -88 48 -74 7 8 8 14 2 14 -5 0 -10
5 -10 10 0 15 12 12 40 -10 l25 -19 -32 -12 c-38 -13 -39 -20 -13 -74 11 -22
17 -30 14 -18 -4 17 2 25 26 38 18 9 33 15 35 13 1 -2 7 -13 14 -25 9 -19 7
-25 -15 -42 -15 -12 -33 -21 -40 -21 -20 0 -17 -24 5 -44 11 -10 17 -24 14
-32 -12 -32 19 -102 68 -150 l48 -47 43 13 c24 7 58 14 77 16 33 3 34 3 13
-12 -12 -8 -37 -21 -57 -30 -19 -8 -35 -18 -35 -23 0 -4 23 -30 51 -56 l50
-47 -30 -28 c-16 -16 -44 -30 -63 -33 -30 -3 -29 -4 9 -5 23 -1 64 2 90 7 26
5 75 12 108 14 58 5 59 4 28 -9 -40 -17 -48 -31 -32 -51 11 -13 10 -17 -6 -29
-16 -12 -17 -16 -6 -23 45 -28 -51 -50 -139 -32 -44 9 -44 9 -10 10 28 1 36 5
37 21 1 17 -5 20 -35 21 -30 0 -33 2 -17 9 16 7 17 9 3 9 -9 1 -22 -7 -28 -17
-9 -14 -10 -12 -5 13 4 20 2 25 -3 16 -7 -9 -12 -10 -16 -2 -16 25 -25 9 -11
-19 8 -16 15 -36 15 -45 0 -9 5 -13 10 -10 7 4 9 -2 5 -18 -7 -26 28 -211 48
-257 6 -14 10 -29 8 -34 -3 -12 27 -155 36 -169 4 -7 6 -21 5 -32 -2 -11 5
-65 14 -120 46 -282 65 -580 58 -895 -5 -258 -11 -325 -34 -385 -9 -24 -13
-27 -22 -15 -8 13 -9 13 -5 -1 3 -9 -9 -60 -27 -112 -20 -59 -31 -108 -28
-127 l4 -30 209 0 c175 0 209 2 209 14 0 8 4 17 9 20 5 4 7 -3 4 -14 -5 -20 0
-20 237 -20 222 0 242 1 236 17 -4 9 -1 20 6 25 10 6 10 10 -2 18 -13 8 -8 14
10 12 3 0 4 16 1 36 -3 20 -6 29 -9 20 -4 -19 -29 -23 -69 -12 -18 5 -23 14
-23 41 0 36 30 79 38 55 2 -6 13 -12 24 -12 20 0 21 1 3 20 -10 11 -24 20 -32
20 -9 0 -13 14 -13 45 0 25 5 45 10 45 21 0 9 40 -19 61 -16 11 -34 31 -41 44
-10 19 -18 22 -46 18 -22 -4 -34 -2 -34 6 0 6 11 11 25 11 15 0 25 6 25 14 0
8 6 16 13 19 6 2 8 8 4 13 -4 5 -12 3 -16 -4 -4 -7 -25 -15 -47 -18 l-39 -5
43 22 c42 21 55 39 27 39 -8 0 -15 6 -15 14 0 7 7 19 15 26 13 10 15 9 15 -10
0 -13 2 -21 5 -18 3 2 1 31 -4 64 -8 55 -9 56 -10 17 -1 -30 -5 -43 -15 -43
-10 0 -16 22 -21 80 -5 62 -11 80 -22 80 -13 0 -14 -12 -8 -77 4 -43 8 -82 8
-86 1 -5 -6 -14 -15 -20 -13 -9 -21 -8 -30 1 -10 10 -9 14 7 18 18 5 20 14 20
119 0 102 -2 114 -18 119 -15 4 -18 13 -16 52 2 31 -1 49 -9 52 -18 6 -15 33
6 48 16 13 16 13 0 14 -14 0 -18 9 -18 40 0 33 3 40 20 40 11 0 20 7 20 15 0
42 -60 -13 -61 -57 -1 -23 -3 -26 -6 -10 -5 26 -28 29 -37 6 -4 -12 -2 -15 9
-10 8 3 15 1 15 -5 0 -16 -49 -64 -57 -55 -4 4 -3 10 3 14 5 4 11 45 12 92 1
47 7 95 14 108 9 17 9 25 1 30 -7 5 -13 103 -18 297 -3 159 -8 292 -10 296 -3
3 -5 46 -6 95 -1 124 -25 297 -47 347 -11 23 -31 54 -47 69 -15 15 -28 38 -29
52 0 13 -4 22 -7 20 -10 -6 -19 24 -13 44 4 11 3 13 -3 5 -10 -14 -58 21 -49
36 4 5 1 22 -6 38 -14 30 -15 33 -53 79 -14 18 -25 37 -25 42 0 6 -12 24 -27
40 -54 58 -93 120 -86 139 3 10 2 15 -2 10 -10 -8 -45 21 -45 38 0 7 -9 20
-21 31 -21 19 -63 89 -65 109 0 6 -4 19 -9 30 -38 96 -55 143 -55 149 0 5 -6
22 -13 39 -31 73 -37 101 -24 109 8 5 7 8 -6 8 -9 0 -23 12 -30 28 -6 15 -24
45 -39 66 -16 21 -28 44 -28 49 0 6 -12 23 -26 38 -14 15 -24 33 -21 41 4 9 8
6 12 -9 4 -12 23 -31 42 -43 19 -11 31 -25 28 -30 -10 -16 5 -50 21 -50 8 0
13 -4 9 -10 -8 -12 16 -50 32 -50 7 0 27 -9 45 -20 52 -31 54 -24 7 22 l-44
41 33 -6 c39 -8 42 0 5 14 l-28 10 24 18 23 18 -31 13 c-19 7 -34 22 -37 36
-3 13 -10 24 -14 24 -4 0 -8 16 -8 35 0 28 5 36 27 44 22 8 23 10 6 11 -27 3
-27 3 -50 -4 -18 -5 -20 0 -23 46 -2 29 -9 56 -15 60 -9 6 -9 10 1 17 10 6 7
10 -12 15 -30 7 -56 46 -31 46 17 0 21 35 4 46 -7 4 -16 -1 -21 -10 -15 -27
-28 -18 -28 20 0 29 -3 35 -16 30 -9 -3 -27 -6 -40 -6 -16 0 -24 -6 -24 -17 0
-15 -2 -16 -9 -3 -6 8 -8 17 -5 21 2 4 0 10 -6 14 -6 4 -8 11 -5 16 10 15 23
10 27 -8 2 -10 6 -13 10 -8 12 19 -20 47 -61 52 -33 5 -41 10 -45 32 -3 14 -5
33 -4 41 4 42 -3 100 -12 100 -6 0 -10 -31 -10 -72 0 -40 -3 -83 -6 -95 -10
-35 -25 -27 -19 10 3 17 1 61 -4 97 -5 36 -9 57 -10 48 -2 -33 -32 -15 -38 22
-1 8 -11 21 -22 29 -12 7 -21 22 -21 31 0 10 -6 21 -12 23 -10 4 -10 8 1 15
10 7 10 11 1 17 -6 4 -9 13 -6 21 3 8 1 14 -5 14 -6 0 -20 21 -31 47 -19 43
-22 45 -29 25 -14 -36 -47 -26 -40 12 1 5 -1 16 -4 24 -5 13 -8 12 -20 -4 -14
-18 -14 -18 -15 3 0 38 -29 63 -63 56 -20 -4 -28 -3 -23 5 3 5 0 13 -6 15 -22
9 10 25 38 19 18 -3 24 0 24 13 0 15 -6 17 -39 11 -38 -6 -39 -6 -28 18 7 13
15 22 19 20 5 -3 8 2 8 10 0 9 -4 16 -10 16 -5 0 -10 7 -10 15 0 8 -4 15 -10
15 -12 0 -13 -10 -1 -29 12 -19 -6 -54 -24 -47 -10 3 -12 0 -9 -12 5 -14 4
-15 -5 -2 -6 8 -11 29 -11 47 0 17 -7 38 -15 47 -9 9 -11 17 -5 21 14 8 13 26
-1 23 -17 -4 -31 54 -16 64 9 6 9 8 -2 8 -8 0 -11 7 -8 20 3 10 1 20 -3 22
-12 5 -22 78 -10 78 5 0 10 -7 10 -17 0 -9 2 -14 5 -12 7 8 -28 174 -39 181
-8 5 -7 8 1 8 8 0 4 27 -12 87 -13 47 -22 89 -21 92 2 3 -2 36 -9 74 -7 37
-10 67 -6 67 3 0 1 4 -5 8 -17 11 -27 62 -12 62 9 0 10 3 2 8 -6 4 -16 50 -23
102 -36 300 -114 672 -168 797 -7 17 -13 37 -13 45 0 7 -6 22 -13 33 -8 11
-20 43 -27 70 -8 28 -20 56 -27 63 -7 8 -11 18 -8 23 4 5 2 9 -4 9 -6 0 -17
12 -25 28 -8 15 -35 49 -60 76 -24 28 -51 61 -58 75 -12 25 -56 78 -88 108
-74 69 -103 93 -111 93 -6 0 -8 3 -6 8 6 8 -13 26 -33 30 -8 2 -17 7 -20 12
-3 5 -17 11 -30 15 -14 3 -34 20 -45 36 -28 43 -50 52 -135 58 l-75 6 -18 38
-17 37 -300 0 c-165 0 -300 -3 -300 -8z m-49 -592 c5 0 9 8 9 17 0 9 3 14 6
10 11 -10 -20 -97 -34 -97 -7 0 -10 -4 -7 -10 3 -5 1 -10 -4 -10 -6 0 -14 -18
-17 -40 -4 -24 -11 -37 -17 -33 -7 4 -8 0 -4 -12 4 -9 3 -23 -3 -30 -5 -6 -11
-26 -13 -43 -2 -18 -12 -41 -22 -52 -11 -12 -15 -28 -12 -41 4 -16 3 -19 -5
-11 -9 9 -16 2 -30 -26 -21 -46 -22 -52 -3 -52 12 0 12 -4 -2 -28 -14 -24 -14
-32 -2 -57 20 -41 34 -41 53 0 16 32 45 52 33 22 -3 -8 1 -14 7 -14 8 0 12 11
10 28 -3 22 0 26 15 22 13 -3 21 1 24 14 3 10 5 4 6 -15 0 -18 -3 -41 -8 -51
-6 -10 -7 -28 -4 -40 6 -22 7 -21 19 9 8 18 14 45 14 61 0 16 5 38 12 48 6 10
9 25 6 32 -9 22 -9 34 0 34 18 1 30 18 41 60 6 25 18 48 26 51 8 4 15 12 15
19 0 8 5 17 11 20 7 5 8 -12 3 -56 -5 -45 -4 -60 5 -55 6 4 11 12 11 18 0 6 7
16 16 22 8 6 19 31 25 54 5 24 14 49 19 55 54 65 70 80 70 70 0 -7 -3 -13 -7
-13 -5 0 -8 -25 -9 -55 -1 -64 19 -72 24 -9 2 21 8 44 14 49 7 7 9 -25 5 -103
-4 -106 3 -148 18 -101 6 19 7 20 21 2 11 -14 15 -15 22 -5 7 11 11 10 17 -5
6 -16 8 -16 16 6 l9 23 21 -26 c18 -23 21 -43 25 -167 3 -122 6 -146 25 -176
13 -21 27 -32 35 -29 8 3 14 0 14 -6 0 -9 3 -9 11 -1 6 6 18 9 25 6 8 -3 14 1
14 11 0 9 5 16 10 16 6 0 10 -11 10 -25 0 -34 26 -32 36 3 4 15 6 31 5 35 -1
5 3 6 9 2 5 -3 10 -13 10 -21 0 -8 4 -13 9 -10 10 7 18 -38 13 -73 -3 -20 -8
-22 -33 -17 -16 3 -40 1 -54 -4 -29 -11 -66 -46 -58 -54 4 -3 1 -6 -5 -6 -7 0
-12 -7 -12 -15 0 -8 5 -15 11 -15 5 0 7 5 3 11 -4 8 3 9 27 3 19 -4 52 -8 74
-9 22 -2 40 -3 40 -5 0 -1 29 -3 65 -5 75 -4 190 -23 205 -35 6 -4 24 -11 40
-14 34 -7 118 -55 98 -56 -7 0 -13 -7 -13 -16 0 -8 4 -13 9 -9 10 5 35 -65 26
-73 -12 -12 -33 9 -29 30 4 22 4 22 -6 -2 -8 -17 -8 -26 -1 -28 6 -2 11 -10
11 -18 0 -8 3 -13 8 -13 23 4 52 -2 52 -11 0 -6 -5 -9 -11 -8 -6 2 -14 -3 -16
-11 -4 -10 0 -11 17 -6 19 6 21 4 15 -14 -3 -12 -2 -21 4 -21 10 0 8 -34 -4
-63 -4 -10 -5 -31 -2 -46 4 -19 1 -33 -8 -41 -12 -10 -12 -15 0 -34 9 -14 11
-26 5 -36 -8 -12 -10 -11 -11 5 -2 35 -32 -78 -36 -138 -3 -35 -9 -55 -15 -51
-7 4 -8 -4 -3 -24 5 -25 2 -33 -14 -42 -12 -6 -21 -18 -21 -27 0 -9 -7 -43
-16 -75 -13 -44 -21 -58 -35 -58 -14 0 -19 -7 -19 -26 0 -19 -4 -25 -15 -20
-8 3 -14 0 -12 -7 1 -7 -8 -12 -20 -11 -12 0 -20 -3 -18 -6 6 -9 -18 -60 -27
-60 -5 0 -8 5 -8 11 0 5 -5 7 -10 4 -6 -4 -8 -11 -5 -16 4 -5 -1 -16 -9 -25
-20 -19 -20 -34 -2 -34 19 0 25 -28 19 -97 -3 -35 -10 -61 -19 -66 -8 -4 -14
-13 -14 -19 0 -15 -69 -108 -105 -141 -36 -33 -32 -29 -89 -92 -24 -27 -68
-78 -96 -112 -29 -35 -56 -63 -61 -63 -5 0 -9 -5 -9 -11 0 -19 -28 -39 -55
-39 -15 0 -36 -11 -49 -25 -13 -14 -28 -25 -33 -25 -5 0 -18 -9 -28 -20 -10
-11 -20 -18 -23 -16 -2 3 -13 -4 -25 -15 -13 -12 -35 -19 -58 -19 -40 0 -89
-17 -89 -32 0 -23 -165 7 -236 43 -36 18 -218 179 -203 179 4 0 -9 17 -27 37
-19 20 -34 41 -34 46 0 15 -52 72 -63 69 -5 -2 -7 6 -4 17 3 13 1 18 -8 14
-15 -5 -38 30 -27 42 4 5 3 6 -3 3 -5 -3 -19 4 -30 15 -11 11 -14 17 -7 13 22
-13 12 11 -13 30 -14 10 -25 22 -25 26 0 4 -13 21 -30 39 -16 18 -27 36 -25
40 3 4 -2 10 -10 13 -8 3 -14 9 -13 13 1 4 -3 17 -9 28 -6 11 -11 22 -11 25 0
3 -6 19 -12 35 -19 49 -41 137 -46 185 -3 25 -12 92 -20 150 -36 269 -1 548
91 711 23 42 63 160 74 222 16 89 84 159 141 144 11 -3 20 -2 20 3 0 4 7 10
14 13 11 4 13 1 9 -10 -5 -12 -1 -14 15 -8 13 3 22 2 22 -4 0 -13 52 -29 117
-36 47 -5 52 -4 46 11 -7 19 7 14 39 -14 9 -7 22 -11 29 -6 7 4 10 3 6 -3 -4
-6 0 -13 8 -17 8 -3 17 -1 20 5 4 5 10 7 15 4 5 -3 11 -1 15 5 3 5 -3 15 -15
22 -11 7 -20 18 -20 25 0 7 -8 13 -18 13 -10 0 -22 4 -27 8 -13 12 -129 40
-188 47 -26 2 -55 9 -65 14 -9 4 -25 7 -34 6 -25 -4 -23 1 27 94 24 46 47 92
50 102 4 11 11 19 16 19 5 0 9 7 9 16 0 8 5 12 10 9 6 -3 10 1 10 10 0 18 30
78 43 83 4 2 7 12 7 22 0 10 8 26 17 36 10 10 22 27 28 38 6 11 22 26 35 33
14 7 18 13 10 13 -10 0 -7 5 8 16 12 8 22 20 22 26 0 16 64 69 69 56 2 -6 -4
-17 -13 -23 -17 -13 -22 -35 -8 -35 5 0 19 20 31 45 12 25 30 53 39 62 16 16
17 15 20 -5 2 -12 8 -22 13 -22z m-75 -362 c-13 -36 -15 -39 -16 -16 0 15 5
30 10 33 6 4 10 12 9 18 -1 7 0 19 1 27 2 12 3 12 7 -2 2 -9 -3 -36 -11 -60z
m104 41 c0 -10 -4 -19 -10 -19 -5 0 -10 12 -10 26 0 14 4 23 10 19 6 -3 10
-15 10 -26z m-30 -39 c0 -11 -4 -20 -10 -20 -5 0 -10 9 -10 20 0 11 5 20 10
20 6 0 10 -9 10 -20z m-127 -30 c-3 -12 -8 -19 -11 -16 -5 6 5 36 12 36 2 0 2
-9 -1 -20z m57 -70 c0 -5 -4 -10 -10 -10 -5 0 -10 5 -10 10 0 6 5 10 10 10 6
0 10 -4 10 -10z m960 -268 c0 -7 5 -10 10 -7 7 4 9 -2 4 -19 -5 -22 -3 -26 17
-26 12 0 19 -3 16 -7 -16 -15 -72 -3 -89 19 -22 29 -22 38 -2 38 8 0 13 4 10
9 -4 5 -3 16 0 25 6 15 8 15 20 -1 7 -10 14 -24 14 -31z m-80 -28 c0 -8 -4
-14 -10 -14 -5 0 -10 9 -10 21 0 11 5 17 10 14 6 -3 10 -13 10 -21z m-90 -19
c0 -8 -4 -15 -10 -15 -5 0 -10 7 -10 15 0 8 5 15 10 15 6 0 10 -7 10 -15z
m-1593 -487 c-3 -8 -6 -5 -6 6 -1 11 2 17 5 13 3 -3 4 -12 1 -19z m-40 -260
c-3 -8 -6 -5 -6 6 -1 11 2 17 5 13 3 -3 4 -12 1 -19z m2630 -140 c-3 -8 -6 -5
-6 6 -1 11 2 17 5 13 3 -3 4 -12 1 -19z m-719 -415 c-2 -11 -11 -17 -21 -15
-9 2 -17 -2 -17 -8 0 -5 8 -11 18 -11 15 -1 16 -2 0 -6 -11 -3 -15 -10 -11
-20 4 -11 3 -14 -6 -9 -7 4 -20 -2 -31 -16 -11 -13 -19 -17 -20 -10 0 6 8 20
18 30 9 9 16 27 14 40 -3 17 2 22 17 22 12 0 21 5 21 10 0 6 5 10 11 10 6 0 9
-8 7 -17z m836 -46 c9 -23 16 -60 16 -82 0 -47 -8 -43 -14 8 -2 20 -7 41 -11
47 -12 20 -24 70 -16 70 5 0 16 -19 25 -43z m61 -28 c0 -20 -29 -17 -33 3 -2
11 3 16 15 14 10 -2 18 -9 18 -17z m71 -58 c-3 -5 -15 -7 -26 -4 -28 7 -25 13
6 13 14 0 23 -4 20 -9z m-69 -33 c-3 -8 -6 -5 -6 6 -1 11 2 17 5 13 3 -3 4
-12 1 -19z m48 -17 c3 -5 1 -12 -5 -16 -5 -3 -10 1 -10 9 0 18 6 21 15 7z m82
-48 c-3 -10 -5 -2 -5 17 0 19 2 27 5 18 2 -10 2 -26 0 -35z m43 2 c0 -15 -6
-25 -14 -25 -9 0 -13 10 -12 25 1 33 26 33 26 0z m-70 -5 c0 -5 -5 -10 -11
-10 -5 0 -7 5 -4 10 3 6 8 10 11 10 2 0 4 -4 4 -10z m-90 -44 c0 -3 -4 -8 -10
-11 -5 -3 -10 -1 -10 4 0 6 5 11 10 11 6 0 10 -2 10 -4z m200 -96 c0 -5 -4
-10 -9 -10 -6 0 -13 5 -16 10 -3 6 1 10 9 10 9 0 16 -4 16 -10z m80 -66 c0 -8
-4 -12 -10 -9 -5 3 -10 10 -10 16 0 5 5 9 10 9 6 0 10 -7 10 -16z m-470 -108
c0 -2 -8 -10 -17 -17 -16 -13 -17 -12 -4 4 13 16 21 21 21 13z m580 -27 c0 -5
-7 -9 -15 -9 -8 0 -15 7 -15 15 0 9 6 12 15 9 8 -4 15 -10 15 -15z m-46 -11
c-4 -6 0 -14 7 -19 7 -4 11 -10 9 -13 -3 -2 -13 2 -24 9 -19 14 -15 52 4 40 6
-4 7 -11 4 -17z m-189 -8 c3 -5 1 -10 -4 -10 -6 0 -11 5 -11 10 0 6 2 10 4 10
3 0 8 -4 11 -10z m-685 -43 c0 -20 -48 -92 -79 -120 -33 -30 -49 -37 -81 -37
-46 0 -50 10 -15 48 15 16 21 28 14 31 -16 5 39 27 89 36 28 4 43 13 47 26 5
15 25 28 25 16z m580 -27 c0 -5 -5 -10 -11 -10 -5 0 -7 5 -4 10 3 6 8 10 11
10 2 0 4 -4 4 -10z m322 -112 c4 1 5 -5 2 -12 -4 -12 -10 -10 -30 7 -30 26
-31 31 -1 15 12 -7 25 -11 29 -10z m-3002 -47 c0 -6 -4 -13 -10 -16 -5 -3 -10
1 -10 9 0 9 5 16 10 16 6 0 10 -4 10 -9z m3065 -21 c-3 -5 -13 -6 -21 -3 -12
4 -13 8 -3 14 15 9 32 2 24 -11z m-250 -30 c22 -23 26 -33 17 -42 -9 -9 -15
-9 -24 1 -11 10 -10 11 5 6 23 -10 22 4 -5 32 -25 27 -47 31 -27 6 13 -16 12
-17 -3 -4 -17 12 -16 31 1 31 4 0 20 -14 36 -30z m319 14 c3 -8 2 -12 -4 -9
-6 3 -10 10 -10 16 0 14 7 11 14 -7z m-22 -19 c20 -17 24 -25 14 -25 -9 0 -16
4 -16 9 0 5 -9 13 -20 16 -11 3 -20 11 -20 16 0 15 10 11 42 -16z m-3707 -55
c3 -5 1 -10 -4 -10 -6 0 -11 5 -11 10 0 6 2 10 4 10 3 0 8 -4 11 -10z m3476
-7 c13 -16 12 -17 -3 -4 -14 11 -18 11 -18 1 0 -8 -3 -11 -6 -7 -5 5 3 27 10
27 2 0 10 -8 17 -17z m59 -24 c-7 -11 -14 -19 -16 -16 -7 7 7 37 17 37 6 0 5
-9 -1 -21z m285 11 c3 -5 1 -10 -4 -10 -6 0 -11 5 -11 10 0 6 2 10 4 10 3 0 8
-4 11 -10z m65 -9 c0 -12 -20 -25 -27 -18 -7 7 6 27 18 27 5 0 9 -4 9 -9z
m-1410 -159 c0 -65 4 -122 10 -128 11 -11 19 -154 9 -180 -4 -11 -8 19 -8 69
-1 85 -1 87 -25 87 l-25 0 5 123 c6 132 8 147 24 147 6 0 10 -44 10 -118z
m1064 93 c-5 -12 -2 -13 12 -8 18 7 18 6 2 -11 -23 -22 -42 -12 -28 15 13 23
22 26 14 4z m-1121 -180 l2 -80 -37 -9 c-32 -8 -41 -6 -72 17 -21 17 -48 27
-68 27 -21 0 -28 3 -20 9 7 4 14 14 16 22 1 8 9 28 18 44 9 17 23 44 32 60 10
20 16 24 16 13 0 -10 3 -18 6 -18 4 0 13 8 20 18 13 16 13 16 14 0 0 -10 7
-18 15 -18 8 0 15 -8 15 -17 1 -40 20 13 21 57 l1 45 9 -45 c5 -25 10 -81 12
-125z m-1759 75 c-6 -5 -24 21 -24 34 0 6 6 1 14 -10 8 -10 12 -21 10 -24z
m618 -48 c-3 -17 -1 -23 7 -18 6 4 9 11 6 16 -3 5 -1 11 5 15 5 3 10 2 10 -4
0 -6 7 -8 15 -5 11 5 15 -1 16 -22 l2 -29 4 27 c4 24 8 26 41 23 20 -1 38 -4
40 -5 1 -1 5 -3 10 -5 41 -11 64 -27 54 -37 -8 -8 -15 -8 -27 2 -14 12 -16 12
-14 -1 1 -7 -1 -22 -5 -31 -5 -10 -5 -26 0 -35 6 -15 8 -13 12 10 4 34 22 36
22 1 0 -16 4 -23 11 -18 6 3 9 17 6 30 -6 31 5 31 20 -1 8 -19 8 -25 0 -26 -8
0 -7 -3 1 -6 7 -3 25 5 39 18 l25 24 -7 -27 c-5 -21 -3 -27 15 -33 11 -4 26
-2 33 3 7 6 34 6 67 2 45 -7 57 -5 68 9 41 50 -58 -301 -117 -414 -25 -49 -57
-116 -71 -147 -14 -32 -28 -58 -32 -58 -5 0 -8 -7 -8 -16 0 -14 3 -14 15 -4 8
7 15 9 15 5 0 -5 11 13 25 39 14 26 23 51 20 56 -3 5 -1 11 5 15 16 10 11 -23
-10 -65 -21 -42 -26 -70 -11 -70 5 0 12 -10 15 -22 7 -22 7 -22 15 -3 5 11 6
26 4 33 -3 6 -1 12 5 12 5 0 9 8 8 18 -1 13 6 16 32 14 17 -2 32 0 32 5 0 4 4
14 9 22 8 12 16 10 50 -13 51 -36 53 -56 7 -56 -51 0 -85 -16 -96 -45 -5 -14
-18 -26 -30 -26 -28 -2 -33 -3 -46 -11 -5 -4 -28 -13 -50 -21 l-41 -14 2 43
c1 38 -1 42 -17 33 -9 -5 -34 -30 -55 -56 -21 -26 -56 -67 -78 -92 -37 -42
-38 -44 -10 -26 48 31 136 75 155 78 10 2 25 8 32 15 8 6 18 9 21 5 4 -3 15 1
25 10 10 9 26 16 37 15 11 0 54 9 95 20 41 11 129 35 195 52 159 42 285 80
285 86 0 3 -9 2 -20 -1 -12 -4 -27 -1 -35 5 -12 10 -16 9 -21 -4 -3 -9 -10
-16 -15 -16 -12 0 3 28 31 58 26 28 29 28 75 -4 l38 -26 41 19 c22 10 47 17
56 15 12 -2 12 -1 1 6 -8 6 -11 17 -6 32 5 15 2 25 -6 31 -10 6 -8 9 7 9 12 0
27 7 34 15 14 16 50 21 50 6 0 -5 3 -17 7 -27 4 -11 3 -15 -4 -11 -7 5 -16 -8
-23 -30 -7 -21 -17 -44 -23 -51 -5 -7 -7 -15 -4 -19 10 -10 -42 -45 -58 -39
-9 3 -15 0 -15 -9 0 -9 -6 -12 -15 -9 -8 4 -15 1 -15 -6 0 -7 -8 -10 -20 -7
-13 3 -20 0 -20 -9 0 -8 -6 -11 -15 -8 -8 4 -15 1 -15 -6 0 -7 -8 -9 -20 -5
-12 4 -20 2 -20 -6 0 -9 -4 -8 -15 1 -12 10 -15 10 -15 -4 0 -19 -11 -21 -29
-3 -10 10 -11 9 -6 -5 8 -21 -5 -24 -23 -6 -9 9 -12 8 -12 -5 0 -20 -11 -22
-28 -5 -9 9 -12 8 -12 -5 0 -14 -4 -16 -19 -7 -14 7 -21 6 -24 -3 -3 -9 -7 -9
-20 2 -15 12 -17 11 -17 -3 0 -19 -11 -21 -28 -4 -9 9 -12 9 -12 -1 0 -8 -7
-10 -20 -6 -12 4 -20 2 -20 -5 0 -7 -7 -10 -15 -6 -8 3 -15 1 -15 -5 0 -6 -9
-8 -20 -4 -12 4 -20 2 -20 -6 0 -9 -4 -8 -15 1 -12 10 -16 9 -21 -4 -5 -13 -9
-14 -20 -5 -11 9 -14 8 -14 -4 0 -10 -6 -14 -14 -11 -8 3 -17 0 -21 -6 -6 -9
-10 -9 -16 1 -7 11 -11 12 -17 1 -5 -7 -16 -10 -25 -6 -10 3 -17 1 -17 -5 0
-6 -7 -8 -15 -5 -8 4 -15 1 -15 -6 0 -7 -8 -9 -20 -5 -12 4 -20 2 -20 -5 0 -6
-4 -9 -8 -6 -13 8 -92 -15 -92 -27 0 -6 -3 -7 -7 -4 -3 4 -28 -9 -55 -28 -26
-19 -51 -35 -56 -35 -8 -1 -89 -110 -114 -154 -9 -17 -17 -43 -18 -58 0 -34
-14 -43 -34 -23 -13 13 -13 19 0 43 7 15 14 33 14 40 0 6 5 12 10 12 6 0 10 5
10 10 0 6 -14 10 -31 10 -17 0 -28 4 -24 10 3 6 2 10 -4 10 -5 0 -11 -4 -13
-10 -1 -5 -12 -7 -23 -4 -24 6 -55 75 -55 122 0 18 -4 31 -9 28 -5 -3 -11 10
-13 28 -2 19 0 32 4 30 13 -8 9 11 -4 25 -11 10 -10 12 2 9 11 -2 16 8 18 36
2 25 0 36 -7 31 -6 -3 -11 -2 -11 4 0 5 -3 17 -7 27 -4 12 -3 15 5 10 8 -5 10
7 6 44 -5 43 -3 49 10 44 9 -3 16 -1 16 5 0 6 -5 11 -11 11 -7 0 -5 10 5 25
17 26 27 135 13 135 -5 0 -1 7 7 15 13 13 13 20 3 36 -10 16 -9 21 3 29 20 13
4 13 -23 -1 -20 -9 -20 -9 -4 4 9 8 17 19 17 25 0 6 8 9 18 6 9 -3 5 2 -10 11
-32 18 -37 30 -9 22 15 -3 17 0 13 17 -2 11 -11 26 -20 33 -10 8 -13 22 -9 43
4 17 2 30 -3 30 -6 0 -10 7 -10 16 0 9 5 12 12 8 7 -5 9 0 6 14 -4 13 0 23 9
26 8 3 11 10 8 16 -3 6 1 13 9 16 9 3 16 10 16 15 0 4 -7 6 -14 3 -13 -5 -13
-2 -3 21 11 24 16 26 68 23 42 -2 55 0 52 10 -3 6 -9 12 -15 12 -5 0 -6 5 -3
10 4 6 9 8 13 6 4 -2 13 2 20 10 11 12 10 14 -4 14 -16 0 -16 1 -1 18 10 10
17 25 17 34 0 21 6 25 38 25 25 0 28 -3 24 -25z m-1532 14 c0 -3 -4 -8 -10
-11 -5 -3 -10 -1 -10 4 0 6 5 11 10 11 6 0 10 -2 10 -4z m3060 -31 c0 -31 -5
-37 -57 -68 -45 -26 -60 -31 -66 -21 -12 21 8 49 65 87 29 20 54 36 56 37 1 0
2 -16 2 -35z m-879 -113 c-11 -22 -38 -61 -60 -86 -39 -45 -59 -56 -53 -29 2
7 -4 13 -12 13 -10 0 -13 6 -9 16 4 11 8 12 13 4 5 -8 9 -4 13 10 4 15 10 19
19 14 7 -4 10 -4 6 0 -4 5 -3 19 2 32 8 20 6 24 -8 24 -9 1 1 7 22 15 22 7 49
23 60 35 30 29 33 3 7 -48z m-1236 10 c-3 -3 -11 0 -18 7 -9 10 -8 11 6 5 10
-3 15 -9 12 -12z m2105 -50 c0 -23 -8 -33 -40 -51 l-40 -22 0 34 c0 28 5 36
33 50 44 22 47 21 47 -11z m-320 -47 c0 -9 -9 -15 -21 -15 -18 0 -19 2 -9 15
7 8 16 15 21 15 5 0 9 -7 9 -15z m-1770 -10 c0 -8 -4 -15 -10 -15 -5 0 -10 7
-10 15 0 8 5 15 10 15 6 0 10 -7 10 -15z m30 -46 c0 -6 -4 -7 -10 -4 -5 3 -10
11 -10 16 0 6 5 7 10 4 6 -3 10 -11 10 -16z m1738 -8 c2 -12 1 -29 -2 -38 -9
-22 -36 2 -36 32 0 41 32 47 38 6z m-52 -16 c-3 -8 -10 -15 -16 -15 -7 0 -8 5
-3 13 4 6 8 15 9 20 4 19 6 21 11 9 3 -7 2 -19 -1 -27z m411 -31 c-1 0 -40
-24 -86 -52 -47 -28 -86 -50 -88 -48 -10 10 -13 86 -4 86 6 0 20 9 31 20 11
11 20 16 20 10 0 -17 23 -11 70 19 l45 28 7 -31 c3 -17 6 -31 5 -32z m-1034
50 c8 -8 -3 -34 -14 -34 -5 0 -9 9 -9 20 0 19 11 26 23 14z m-1077 -51 c-10
-10 -19 5 -10 18 6 11 8 11 12 0 2 -7 1 -15 -2 -18z m1034 -8 c22 20 40 12 33
-14 -6 -23 -58 -72 -67 -64 -11 11 -6 24 6 17 8 -5 9 5 5 37 -3 24 -3 36 0 26
4 -17 6 -17 23 -2z m650 -41 c0 -8 5 -14 11 -14 5 0 7 5 3 11 -4 7 1 10 12 7
10 -2 20 -11 22 -21 3 -14 -2 -18 -20 -16 -12 2 -28 0 -35 -4 -12 -7 -63 8
-63 19 0 3 10 14 22 24 24 19 48 16 48 -6z m138 -126 c-22 -17 -23 -16 -26 7
-2 13 6 45 17 71 12 26 22 54 23 63 1 9 4 -15 5 -54 4 -63 2 -71 -19 -87z
m-1788 132 c0 -5 -2 -10 -4 -10 -3 0 -8 5 -11 10 -3 6 -1 10 4 10 6 0 11 -4
11 -10z m1163 -30 c31 -11 77 -20 102 -20 43 0 46 -2 52 -30 5 -27 9 -30 43
-30 21 0 41 -6 43 -12 4 -8 6 -7 6 4 1 21 127 81 153 72 31 -9 4 -31 -46 -36
-25 -3 -58 -16 -77 -31 -29 -21 -41 -24 -80 -20 -55 6 -138 -18 -164 -47 -22
-24 -53 -25 -119 -5 -27 8 -65 15 -85 15 -34 1 -35 2 -17 15 11 8 28 15 39 15
15 0 18 5 15 25 -4 17 -1 25 8 25 8 0 27 18 42 40 15 21 27 39 27 40 1 0 26
-9 58 -20z m-1173 -9 c0 -6 -4 -13 -10 -16 -5 -3 -10 1 -10 9 0 9 5 16 10 16
6 0 10 -4 10 -9z m3045 -1 c-3 -5 -12 -10 -18 -10 -7 0 -6 4 3 10 19 12 23 12
15 0z m-2020 -30 c3 -6 -1 -7 -9 -4 -18 7 -21 14 -7 14 6 0 13 -4 16 -10z
m-995 -21 c0 -6 -4 -7 -10 -4 -5 3 -10 11 -10 16 0 6 5 7 10 4 6 -3 10 -11 10
-16z m1675 -41 c-10 -61 -25 -83 -19 -28 7 53 11 70 20 70 3 0 3 -19 -1 -42z
m-169 7 c-4 -14 -2 -34 4 -45 9 -16 8 -22 -5 -26 -21 -9 -19 -31 5 -39 24 -8
26 -28 4 -49 -20 -20 -26 -20 -55 2 -13 10 -32 22 -43 26 -17 6 -18 8 -2 24 9
10 16 24 16 31 0 7 4 10 9 7 16 -10 41 5 41 25 0 20 -34 27 -45 9 -7 -12 -25
-4 -25 11 0 13 61 49 84 49 14 0 17 -5 12 -25z m-1495 -42 c-8 -15 -10 -15
-11 -2 0 17 10 32 18 25 2 -3 -1 -13 -7 -23z m868 -52 c-12 -59 -25 -70 -15
-13 9 50 17 74 22 69 2 -2 -1 -27 -7 -56z m-1789 25 c0 -14 -4 -27 -9 -31 -12
-7 -25 31 -16 45 11 18 25 10 25 -14z m930 -5 c-1 -3 -7 -17 -15 -31 l-14 -25
2 31 c1 17 8 31 15 31 6 0 12 -3 12 -6z m3220 -65 c12 -3 12 -4 -2 -5 -9 0
-20 4 -23 9 -9 15 -61 12 -74 -4 -21 -25 0 -52 37 -47 8 1 19 -2 26 -8 8 -7
20 -6 39 4 15 8 27 10 27 4 0 -5 -5 -9 -11 -9 -5 0 -8 -4 -5 -9 8 -12 -12 -26
-58 -41 l-39 -13 -54 57 c-39 40 -54 62 -51 78 3 21 10 23 73 28 64 5 71 3 85
-17 8 -12 21 -24 30 -27z m-3207 -10 c4 -10 1 -13 -8 -9 -8 3 -12 9 -9 14 7
12 11 11 17 -5z m3203 -31 c-10 -8 -23 -12 -29 -8 -11 7 12 23 33 23 12 -1 11
-4 -4 -15z m-1940 -27 c-18 -26 -22 -17 -5 14 6 11 13 17 16 15 3 -3 -2 -16
-11 -29z m-2210 -5 c-10 -10 -19 5 -10 18 6 11 8 11 12 0 2 -7 1 -15 -2 -18z
m961 -75 c-3 -8 -6 -5 -6 6 -1 11 2 17 5 13 3 -3 4 -12 1 -19z m3247 -51 c-1
-9 3 -14 9 -10 6 4 8 -2 5 -15 -4 -14 -2 -19 8 -15 7 2 21 -1 31 -7 15 -10 15
-11 1 -6 -12 3 -15 1 -11 -10 10 -26 -14 -14 -62 30 -44 42 -45 45 -23 49 33
6 43 2 42 -16z m275 -20 c8 -10 7 -17 -2 -26 -9 -10 -8 -11 5 -6 12 5 21 -2
33 -25 9 -17 14 -37 12 -43 -2 -6 -10 3 -18 21 -16 36 -29 42 -29 12 0 -18 -4
-16 -30 13 -35 40 -38 51 -10 42 15 -5 18 -3 14 9 -7 19 9 21 25 3z m-3319
-22 c0 -8 -4 -15 -10 -15 -5 0 -7 7 -4 15 4 8 8 15 10 15 2 0 4 -7 4 -15z
m-116 -21 c3 -8 2 -12 -4 -9 -6 3 -10 10 -10 16 0 14 7 11 14 -7z m3396 -38
c0 -5 -7 -1 -15 10 -8 10 -14 24 -14 29 0 6 6 1 14 -9 8 -11 15 -24 15 -30z
m-2013 -48 c-3 -8 -6 -5 -6 6 -1 11 2 17 5 13 3 -3 4 -12 1 -19z m-1387 -58
c0 -5 -4 -10 -10 -10 -5 0 -10 5 -10 10 0 6 5 10 10 10 6 0 10 -4 10 -10z m70
-10 c0 -5 -5 -10 -11 -10 -5 0 -7 5 -4 10 3 6 8 10 11 10 2 0 4 -4 4 -10z
m3256 -46 c-5 -13 -10 -14 -18 -6 -6 6 -8 18 -4 28 5 13 10 14 18 6 6 -6 8
-18 4 -28z m-3299 1 c-4 -8 -11 -15 -17 -15 -7 0 -7 6 0 21 13 23 26 19 17 -6z
m-1276 -2 c35 -18 77 -22 97 -9 13 8 15 2 6 -31 -3 -12 -17 -24 -32 -28 -14
-3 -38 -15 -54 -26 l-28 -20 -1 48 c-1 26 -1 51 -1 55 1 3 -5 9 -13 12 -12 4
-14 0 -11 -19 3 -14 0 -25 -5 -25 -5 0 -9 14 -9 30 0 35 5 36 51 13z m1301
-35 c-9 -9 -12 -7 -12 12 0 19 3 21 12 12 9 -9 9 -15 0 -24z m38 -19 c0 -5 -4
-9 -10 -9 -5 0 -10 7 -10 16 0 8 5 12 10 9 6 -3 10 -10 10 -16z m30 -24 c0 -8
-7 -15 -15 -15 -16 0 -20 12 -8 23 11 12 23 8 23 -8z m23 -43 c-2 -7 4 -12 13
-12 9 0 14 -5 12 -12 -6 -17 -28 -22 -28 -7 0 7 -8 21 -17 32 -17 19 -17 19 2
15 11 -2 19 -10 18 -16z m45 -53 c-2 -6 -8 -10 -13 -10 -5 0 -11 4 -13 10 -2
6 4 11 13 11 9 0 15 -5 13 -11z m72 -34 c10 -12 9 -15 -8 -15 -11 0 -25 7 -32
15 -10 12 -9 15 8 15 11 0 25 -7 32 -15z m40 -7 c0 -16 -3 -19 -11 -11 -6 6
-8 16 -5 22 11 17 16 13 16 -11z m-220 -8 c0 -5 -5 -10 -11 -10 -5 0 -7 5 -4
10 3 6 8 10 11 10 2 0 4 -4 4 -10z m130 1 c0 -6 -4 -13 -10 -16 -5 -3 -10 1
-10 9 0 9 5 16 10 16 6 0 10 -4 10 -9z m-110 -21 c0 -5 -5 -10 -11 -10 -5 0
-7 5 -4 10 3 6 8 10 11 10 2 0 4 -4 4 -10z m148 -39 c3 -8 -1 -12 -9 -9 -7 2
-15 10 -17 17 -3 8 1 12 9 9 7 -2 15 -10 17 -17z m-1471 -19 c21 -16 21 -21
13 -87 -5 -38 -9 -98 -10 -132 0 -39 -5 -63 -12 -67 -8 -4 -9 -8 -3 -11 6 -3
9 -43 7 -100 l-3 -95 -37 -18 -37 -18 2 91 c1 49 7 174 14 276 13 201 13 202
66 161z m4408 -60 c-3 -8 -5 -21 -5 -30 0 -15 -2 -15 -10 -2 -5 8 -10 31 -10
50 1 33 1 34 16 15 8 -11 12 -26 9 -33z m-2968 -59 c-3 -3 -11 -2 -17 2 -9 6
-9 10 1 16 14 8 27 -7 16 -18z m2983 -80 c0 -7 5 -13 12 -13 6 0 8 -3 4 -7 -4
-4 -18 5 -32 20 -14 15 -22 27 -18 27 3 0 0 8 -7 18 -7 9 -1 6 14 -7 15 -14
27 -30 27 -38z m-4560 -34 c0 -5 -12 -10 -27 -10 l-28 -2 30 -5 c26 -4 28 -5
10 -12 -17 -7 -17 -9 -2 -9 21 -1 23 -21 2 -21 -9 0 -12 -6 -9 -15 4 -9 0 -15
-10 -15 -9 0 -16 -4 -16 -10 0 -5 5 -10 10 -10 6 0 10 -7 10 -15 0 -12 -5 -12
-23 -4 -17 8 -30 30 -45 74 -12 34 -22 64 -22 66 0 2 27 2 60 1 33 -2 60 -8
60 -13z m4564 -8 c11 -12 13 -21 7 -25 -6 -4 -8 -13 -4 -21 3 -11 1 -13 -10
-9 -8 3 -18 15 -21 27 -13 50 -2 61 28 28z m46 5 c0 -3 -4 -8 -10 -11 -5 -3
-10 -1 -10 4 0 6 5 11 10 11 6 0 10 -2 10 -4z m0 -47 c0 -5 -5 -9 -11 -9 -8 0
-9 -13 -5 -41 4 -26 3 -38 -4 -34 -5 3 -10 28 -10 55 0 40 3 48 15 44 8 -4 15
-10 15 -15z m75 1 c25 -4 17 -11 -9 -8 -16 1 -31 9 -34 16 -3 11 0 12 14 4 11
-6 24 -11 29 -12z m-3758 -37 c-3 -10 -5 -4 -5 12 0 17 2 24 5 18 2 -7 2 -21
0 -30z m-927 -53 c0 -5 -2 -10 -4 -10 -3 0 -8 5 -11 10 -3 6 -1 10 4 10 6 0
11 -4 11 -10z m4590 -20 c-12 -7 -13 -13 -4 -27 9 -14 8 -21 -2 -31 -11 -10
-14 -10 -15 0 -4 38 7 68 23 68 9 0 8 -3 -2 -10z m77 -36 c-3 -3 -12 -4 -19
-1 -8 3 -5 6 6 6 11 1 17 -2 13 -5z m-52 -34 c3 -5 -1 -10 -10 -10 -9 0 -13 5
-10 10 3 6 8 10 10 10 2 0 7 -4 10 -10z m-6 -58 c14 -13 14 -13 -4 -10 -13 2
-21 12 -22 28 -1 14 0 18 3 10 4 -8 14 -21 23 -28z m-4647 -98 c-9 -15 -10
-15 -17 5 -4 13 -1 28 7 38 12 15 13 14 16 -5 2 -12 -1 -29 -6 -38z m144 -126
c-3 -16 -2 -28 2 -28 4 0 7 -38 7 -85 0 -46 -3 -81 -8 -76 -24 24 -66 248 -51
272 3 6 17 -5 31 -23 17 -23 23 -41 19 -60z m954 -200 c16 -22 31 -53 31 -67
1 -17 3 -20 6 -8 6 25 39 21 47 -5 4 -13 9 -98 12 -189 5 -144 4 -170 -10
-192 -9 -13 -19 -49 -22 -78 -6 -56 -29 -100 -82 -156 -16 -17 -29 -33 -27
-35 1 -2 5 -22 8 -46 4 -30 2 -42 -6 -39 -7 2 -11 16 -9 30 2 15 0 27 -5 27
-5 0 -8 18 -8 40 0 22 -3 40 -7 40 -5 0 -8 16 -8 36 0 49 54 175 90 209 35 34
37 52 11 103 -25 47 -56 81 -88 93 -22 8 -24 14 -19 42 3 17 6 66 7 107 2 85
14 130 35 130 8 0 27 -19 44 -42z m3603 22 c-3 -11 -7 -20 -9 -20 -2 0 -4 9
-4 20 0 11 4 20 9 20 5 0 7 -9 4 -20z m437 10 c0 -5 -7 -10 -15 -10 -8 0 -15
-4 -15 -9 0 -5 7 -16 15 -25 16 -16 19 -59 5 -91 -8 -19 -9 -19 -9 3 -1 12 -5
22 -10 22 -5 0 -16 7 -25 15 -13 14 -17 12 -32 -20 -14 -31 -15 -40 -3 -61 11
-21 11 -27 -1 -34 -9 -6 -14 -25 -13 -52 1 -37 0 -39 -7 -15 -15 50 2 203 25
226 12 13 15 12 21 -2 3 -9 15 -17 25 -17 23 0 24 8 4 30 -9 10 -13 25 -9 34
7 17 44 23 44 6z m-42 -142 c-2 -6 -10 -14 -16 -16 -7 -2 -10 2 -6 12 7 18 28
22 22 4z m-4949 -112 c1 -48 1 -49 -19 -31 -15 14 -17 21 -9 32 9 9 9 13 0 13
-6 0 -10 16 -10 38 1 23 3 28 6 15 6 -33 21 -28 17 5 -4 27 -4 27 5 2 5 -14 9
-47 10 -74z m5001 43 c7 -27 8 -45 1 -57 -8 -14 -10 -10 -11 20 0 20 -4 40
-10 43 -5 3 -10 -2 -10 -11 0 -10 -3 -15 -6 -11 -9 9 6 68 17 62 4 -3 13 -24
19 -46z m-50 -23 c0 -11 -19 -15 -25 -6 -3 5 1 10 9 10 9 0 16 -2 16 -4z
m-5146 -64 c-8 -2 -14 -8 -14 -13 0 -12 7 -11 31 1 13 8 19 7 19 0 0 -6 10 -8
25 -4 15 4 25 2 25 -5 0 -6 -7 -11 -15 -11 -23 0 -29 -2 -43 -17 -11 -11 -11
-16 2 -29 20 -20 20 -23 -1 -19 -10 2 -22 4 -26 4 -5 1 -7 11 -5 24 2 12 -2
27 -9 32 -7 6 -15 30 -19 55 l-7 45 26 -30 c19 -22 22 -31 11 -33z m176 -18
c0 -14 -4 -23 -10 -19 -5 3 -10 15 -10 26 0 10 5 19 10 19 6 0 10 -12 10 -26z
m4965 16 c3 -5 -1 -10 -10 -10 -9 0 -13 5 -10 10 3 6 8 10 10 10 2 0 7 -4 10
-10z m-65 -60 c-5 -17 -9 -33 -9 -36 1 -3 -2 -9 -6 -12 -7 -7 3 56 12 71 10
16 11 5 3 -23z m-4912 -15 c-6 -14 -13 -24 -14 -22 -6 6 9 47 17 47 5 0 3 -11
-3 -25z m1180 -44 c0 -22 3 -44 6 -50 8 -13 4 -14 -18 -5 -17 6 -20 33 -10 72
10 35 23 26 22 -17z m-1298 -1 c0 -5 -4 -10 -10 -10 -5 0 -10 5 -10 10 0 6 5
10 10 10 6 0 10 -4 10 -10z m5230 -21 c0 -5 -11 -9 -25 -9 -21 0 -24 2 -13 14
13 14 38 11 38 -5z m-224 -64 c-14 -60 -20 -48 -11 22 5 38 10 52 14 40 4 -11
2 -38 -3 -62z m-5010 40 c-9 -21 -12 -22 -18 -7 -10 26 -9 28 11 29 16 1 17
-2 7 -22z m4 -100 c0 -2 -7 -5 -15 -9 -9 -3 -15 0 -15 9 0 9 6 12 15 9 8 -4
15 -7 15 -9z m5280 -25 c0 -5 -4 -10 -10 -10 -5 0 -10 5 -10 10 0 6 5 10 10
10 6 0 10 -4 10 -10z m63 -47 c-13 -2 -33 -2 -45 0 -13 2 -3 4 22 4 25 0 35
-2 23 -4z m-370 -34 c-6 -6 -9 -18 -6 -25 3 -8 0 -14 -7 -14 -8 0 -10 8 -6 23
3 12 6 29 6 37 0 11 3 11 12 2 9 -9 9 -15 1 -23z m-26 -111 c-2 -13 -4 -5 -4
17 -1 22 1 32 4 23 2 -10 2 -28 0 -40z m333 22 c0 -5 -7 -10 -15 -10 -8 0 -15
5 -15 10 0 6 7 10 15 10 8 0 15 -4 15 -10z m-347 -91 c-4 -15 -9 -17 -17 -9
-8 8 -7 13 4 20 8 5 16 10 17 10 0 0 -1 -9 -4 -21z m-4958 -27 c-3 -3 -11 0
-18 7 -9 10 -8 11 6 5 10 -3 15 -9 12 -12z m4953 -62 c0 -9 -3 -7 -8 5 -5 11
-8 29 -8 40 0 16 2 15 8 -5 4 -14 8 -32 8 -40z m447 20 c3 -5 1 -10 -4 -10 -6
0 -11 5 -11 10 0 6 2 10 4 10 3 0 8 -4 11 -10z m25 -39 c0 -18 -18 -21 -30 -6
-10 13 -9 15 9 15 11 0 21 -4 21 -9z"/>
<path d="M2565 6459 c-4 -6 -5 -12 -2 -15 2 -3 7 2 10 11 7 17 1 20 -8 4z"/>
<path d="M3020 6180 c0 -6 4 -9 9 -6 5 4 12 1 14 -4 3 -6 4 -5 3 2 -3 15 -26
23 -26 8z"/>
<path d="M2942 6080 c0 -14 2 -19 5 -12 2 6 2 18 0 25 -3 6 -5 1 -5 -13z"/>
<path d="M3041 6030 c-1 -53 8 -92 20 -85 4 3 6 12 3 19 -3 8 -9 36 -14 62
l-8 49 -1 -45z"/>
<path d="M2261 5692 c-1 -7 -6 -10 -11 -7 -6 3 -13 0 -16 -9 -3 -8 -12 -12
-20 -9 -9 3 -14 -1 -14 -13 0 -17 -1 -16 -15 2 -11 14 -14 15 -9 2 4 -11 -1
-18 -15 -23 -12 -3 -21 -13 -21 -21 0 -8 -4 -14 -10 -14 -18 0 -10 -19 11 -25
16 -5 18 -10 8 -21 -9 -11 -6 -16 16 -24 14 -5 35 -10 46 -10 11 0 43 -12 71
-26 36 -18 62 -25 89 -22 22 2 39 1 39 -2 0 -3 8 -6 18 -7 9 0 35 -3 57 -6 99
-14 145 -17 145 -8 0 11 -56 24 -91 22 -26 -2 -26 -1 -15 33 6 20 14 36 17 36
10 0 59 -52 59 -61 0 -5 7 -9 15 -9 8 0 15 4 15 9 0 5 3 18 6 28 5 15 4 15 -5
3 -9 -13 -11 -11 -11 7 0 12 -5 23 -11 25 -5 2 -12 12 -13 23 -2 11 -8 19 -14
18 -5 -1 -16 4 -22 12 -7 8 -19 15 -27 15 -8 0 -11 5 -8 10 3 6 0 10 -7 10
-21 0 -68 24 -69 35 0 6 -4 1 -9 -10 -9 -19 -9 -19 -16 2 -3 13 -10 20 -15 17
-5 -3 -9 3 -9 12 0 16 -1 16 -15 -2 -13 -17 -14 -17 -15 -1 0 9 -4 17 -10 17
-5 0 -10 -8 -10 -17 -1 -17 -1 -17 -14 0 -11 14 -19 15 -39 8 -18 -7 -27 -7
-31 2 -3 9 -5 8 -5 -1z m112 -104 c-4 -13 -7 -39 -7 -58 1 -40 -13 -55 -33
-34 -8 7 -24 20 -35 28 -40 28 4 77 75 85 5 1 5 -9 0 -21z m77 -24 c0 -9 -5
-14 -12 -12 -18 6 -21 28 -4 28 9 0 16 -7 16 -16z"/>
<path d="M3440 5533 c-89 -6 -110 -13 -110 -33 0 -24 -15 -26 -24 -4 -5 13 -9
14 -22 4 -12 -11 -12 -15 -2 -22 9 -7 6 -8 -9 -5 -13 3 -30 -3 -42 -15 -12
-10 -21 -14 -21 -8 0 5 -4 10 -10 10 -5 0 -6 -8 -3 -17 5 -13 3 -15 -12 -9
-11 4 -16 4 -12 0 3 -4 -7 -22 -23 -41 -17 -18 -30 -37 -30 -41 0 -6 29 -7
103 -3 5 1 5 6 2 12 -4 6 -13 8 -20 5 -7 -2 -16 -2 -19 1 -6 6 72 63 87 63 4
0 7 -18 7 -40 0 -31 -4 -40 -17 -40 -9 0 -14 -3 -10 -6 3 -4 24 -6 47 -6 22 0
40 -3 40 -8 0 -5 7 -7 15 -4 8 4 15 2 15 -4 0 -13 55 -25 108 -22 33 1 42 -2
42 -15 0 -11 -5 -15 -14 -12 -8 3 -17 3 -20 -1 -11 -11 88 -31 122 -25 18 3
37 14 43 24 5 11 14 19 20 19 6 0 7 -6 4 -12 -4 -7 3 -2 14 12 11 14 21 39 21
57 0 17 5 35 11 38 6 4 9 26 7 48 -2 23 -6 40 -9 37 -3 -3 -17 3 -32 13 -15
10 -32 15 -37 12 -6 -3 -10 -2 -10 3 0 6 -10 8 -22 4 -14 -3 -19 -2 -14 6 5 8
0 12 -13 12 -12 0 -21 -5 -21 -12 0 -6 -6 -4 -13 6 -14 19 -48 24 -117 19z
m-90 -113 c0 -5 -7 -10 -15 -10 -8 0 -15 5 -15 10 0 6 7 10 15 10 8 0 15 -4
15 -10z m123 -32 c7 -25 1 -38 -17 -38 -8 0 -11 10 -8 30 5 35 17 39 25 8z"/>
<path d="M3076 4883 c7 -60 6 -63 -19 -72 -13 -5 -27 -15 -29 -21 -3 -9 -27
-9 -93 -2 -50 5 -95 5 -101 1 -6 -5 -14 -5 -18 -1 -4 4 -14 -2 -22 -13 -12
-16 -16 -17 -23 -6 -5 7 -15 11 -22 9 -17 -6 -69 19 -69 33 0 19 -89 51 -121
44 -30 -7 -30 -7 -9 -25 11 -9 38 -20 61 -24 23 -4 65 -24 98 -47 54 -38 63
-41 142 -45 244 -13 226 -15 248 28 17 34 9 149 -14 181 -14 20 -15 18 -9 -40z"/>
<path d="M2366 4891 c-3 -5 -37 -27 -75 -50 -91 -54 -153 -138 -75 -102 29 13
174 141 174 153 0 11 -18 10 -24 -1z"/>
<path d="M3275 4660 c-11 -17 69 -100 97 -100 21 0 23 16 5 33 -43 40 -97 76
-102 67z"/>
<path d="M2335 4598 c4 -18 13 -35 19 -37 6 -2 40 -34 75 -70 52 -52 66 -62
69 -48 2 10 -3 24 -11 30 -8 7 -18 23 -22 37 -5 23 -5 23 8 8 19 -24 27 -23
27 3 0 28 23 19 31 -12 4 -13 7 -19 8 -13 2 16 58 15 65 -2 3 -8 19 -14 35
-14 17 0 48 -6 68 -14 21 -8 58 -17 82 -19 30 -4 50 -13 61 -28 13 -16 18 -18
22 -7 9 22 56 21 69 -3 15 -29 -24 -71 -62 -67 -15 1 -33 -3 -41 -10 -16 -13
-118 -13 -118 0 0 4 -12 8 -27 8 -43 0 -73 11 -73 26 0 8 -4 14 -10 14 -5 0
-10 -5 -10 -12 0 -6 -16 5 -35 25 -33 34 -65 41 -65 13 0 -6 -4 -5 -10 4 -7
12 -12 11 -30 -5 -14 -13 -17 -22 -10 -29 8 -8 14 -6 21 4 8 12 10 11 8 -5 -4
-37 13 -97 30 -102 20 -8 51 -39 51 -53 0 -5 7 -10 16 -10 19 0 46 -25 36 -35
-4 -4 0 -6 8 -4 8 1 28 -3 44 -10 16 -6 77 -14 136 -17 94 -4 114 -2 166 18
32 12 62 21 67 20 4 -1 7 3 7 9 0 5 4 8 9 4 5 -3 11 5 13 17 2 13 13 27 25 33
12 5 24 20 28 32 3 13 10 23 15 23 6 0 10 7 10 17 0 22 48 103 61 103 5 0 20
11 33 25 13 14 28 25 34 25 14 0 19 19 14 47 -4 19 -7 21 -18 12 -11 -9 -14
-8 -14 2 0 11 -2 11 -10 -1 -9 -13 -11 -13 -20 0 -7 11 -10 11 -10 2 0 -7 -4
-10 -10 -7 -5 3 -15 3 -22 -1 -15 -10 -47 -9 -123 0 -114 15 -290 23 -307 14
-10 -5 -25 -5 -35 1 -27 13 -87 31 -106 31 -9 0 -17 5 -17 11 0 6 -6 9 -12 6
-7 -2 -21 0 -30 4 -20 11 -163 39 -196 39 -21 0 -23 -3 -17 -32z m675 -193 c0
-13 -29 -35 -44 -35 -12 0 -5 29 10 44 17 18 34 13 34 -9z m-442 -83 c2 -7 -2
-10 -12 -6 -9 3 -16 11 -16 16 0 13 23 5 28 -10z m127 -37 c38 -2 80 1 93 6
15 6 21 5 17 -1 -3 -6 3 -10 14 -10 23 0 29 -16 9 -23 -10 -3 -10 -7 0 -20 12
-14 9 -16 -20 -15 -18 0 -46 -3 -63 -8 -27 -6 -29 -6 -16 9 12 15 11 17 -3 17
-9 0 -16 -5 -16 -10 0 -15 -42 -8 -73 13 -14 9 -31 17 -37 17 -5 0 -10 6 -10
14 0 8 -6 17 -12 20 -7 3 1 3 17 0 17 -4 61 -8 100 -9z"/>
<path d="M3300 4545 c0 -8 7 -15 15 -15 8 0 15 7 15 15 0 8 -7 15 -15 15 -8 0
-15 -7 -15 -15z"/>
<path d="M2916 4385 c4 -8 8 -15 10 -15 2 0 4 7 4 15 0 8 -4 15 -10 15 -5 0
-7 -7 -4 -15z"/>
<path d="M3754 3219 c0 -13 3 -15 13 -7 7 6 13 14 13 18 0 3 -6 7 -13 7 -7 0
-13 -8 -13 -18z"/>
<path d="M5465 1650 c-3 -5 -1 -10 4 -10 6 0 11 5 11 10 0 6 -2 10 -4 10 -3 0
-8 -4 -11 -10z"/>
<path d="M845 660 c3 -5 8 -10 11 -10 2 0 4 5 4 10 0 6 -5 10 -11 10 -5 0 -7
-4 -4 -10z"/>
<path d="M1615 7130 c3 -5 10 -10 16 -10 5 0 9 5 9 10 0 6 -7 10 -16 10 -8 0
-12 -4 -9 -10z"/>
<path d="M1680 7125 c0 -8 4 -15 10 -15 5 0 7 7 4 15 -4 8 -8 15 -10 15 -2 0
-4 -7 -4 -15z"/>
<path d="M1598 7068 c3 -13 -2 -18 -17 -18 -12 0 -19 5 -16 10 9 14 -7 12 -27
-4 -24 -18 -23 -24 5 -29 20 -3 20 -4 3 -12 -10 -5 -21 -4 -25 2 -8 13 -54 10
-58 -4 -2 -6 4 -13 14 -16 14 -4 13 -5 -5 -6 -12 0 -31 5 -42 12 -17 10 -22 9
-31 -3 -8 -11 -12 -12 -16 -2 -5 12 -60 17 -87 6 -9 -3 -16 -13 -16 -20 0 -12
-4 -12 -24 1 -13 9 -41 15 -62 14 -22 -1 -46 0 -54 3 -8 2 -12 3 -8 1 4 -3 2
-10 -5 -17 -9 -10 -16 -10 -29 -2 -13 7 -23 8 -34 1 -19 -12 -101 3 -107 20
-2 5 -2 0 -1 -12 4 -21 3 -21 -26 -7 -17 9 -30 20 -30 26 0 6 -9 0 -20 -13
-17 -18 -25 -21 -38 -12 -13 8 -21 7 -31 -4 -11 -12 -15 -12 -27 4 -13 16 -15
16 -24 2 -11 -18 -120 -27 -120 -9 0 5 -18 10 -39 10 -29 0 -41 -5 -44 -17 -4
-14 -5 -12 -6 5 -1 20 -31 33 -31 13 0 -13 -143 -19 -242 -10 -18 1 -34 -3
-36 -9 -5 -17 -22 -15 -22 3 0 8 -9 15 -20 15 -11 0 -20 -6 -20 -14 0 -16 -50
-28 -66 -15 -6 5 -15 4 -22 -3 -9 -9 -12 -9 -12 0 0 7 -16 12 -40 12 l-40 0 0
-104 0 -105 48 5 c26 3 83 6 128 8 47 2 93 10 111 19 26 14 33 14 49 2 21 -16
64 -20 64 -6 0 5 16 4 37 -2 28 -9 37 -9 41 1 2 8 36 12 112 12 62 0 111 4
115 10 4 7 13 6 27 -1 15 -8 31 -8 57 -1 20 6 55 13 79 16 35 3 42 1 40 -12
-2 -10 4 -17 12 -17 8 0 14 7 12 16 -2 14 6 15 50 11 29 -3 57 -10 61 -16 5
-7 6 -3 3 8 -6 17 -2 18 43 14 28 -3 55 0 61 6 7 7 14 6 22 -2 20 -20 40 -15
33 8 -4 13 -2 20 6 20 7 0 10 -3 6 -6 -3 -4 0 -13 8 -21 16 -16 59 -8 49 9 -4
6 1 6 14 -1 26 -14 55 -14 47 -1 -9 14 8 13 23 -2 9 -9 17 -9 36 2 14 7 32 10
42 6 10 -4 21 -1 26 6 7 10 11 9 22 -4 11 -15 15 -16 32 -3 10 8 40 15 65 15
32 0 49 5 53 15 3 8 15 15 27 15 16 0 20 5 16 20 -3 11 -1 23 4 26 5 3 9 0 9
-5 0 -20 18 -11 25 12 11 33 12 66 2 60 -5 -3 -6 7 -3 24 5 23 3 32 -9 37 -9
3 -14 10 -10 16 3 6 -15 8 -48 7 -46 -2 -53 -5 -49 -19z m-258 -78 c0 -5 -9
-10 -20 -10 -11 0 -20 5 -20 10 0 6 9 10 20 10 11 0 20 -4 20 -10z"/>
<path d="M1050 7010 c0 -5 5 -10 10 -10 6 0 10 5 10 10 0 6 -4 10 -10 10 -5 0
-10 -4 -10 -10z"/>
<path d="M1085 6810 c-3 -5 -2 -10 4 -10 5 0 13 5 16 10 3 6 2 10 -4 10 -5 0
-13 -4 -16 -10z"/>
<path d="M698 6783 c7 -3 16 -2 19 1 4 3 -2 6 -13 5 -11 0 -14 -3 -6 -6z"/>
<path d="M1586 4933 c-6 -14 -5 -15 5 -6 7 7 10 15 7 18 -3 3 -9 -2 -12 -12z"/>
<path d="M4481 4714 c0 -11 3 -14 6 -6 3 7 2 16 -1 19 -3 4 -6 -2 -5 -13z"/>
<path d="M4508 4573 c5 -21 7 -23 10 -9 2 10 0 22 -6 28 -6 6 -7 0 -4 -19z"/>
<path d="M4711 4394 c0 -11 3 -14 6 -6 3 7 2 16 -1 19 -3 4 -6 -2 -5 -13z"/>
<path d="M5200 3830 c0 -5 5 -10 10 -10 6 0 10 5 10 10 0 6 -4 10 -10 10 -5 0
-10 -4 -10 -10z"/>
<path d="M5200 3790 c0 -5 9 -10 20 -10 11 0 20 5 20 10 0 6 -9 10 -20 10 -11
0 -20 -4 -20 -10z"/>
<path d="M5258 3763 c7 -3 16 -2 19 1 4 3 -2 6 -13 5 -11 0 -14 -3 -6 -6z"/>
<path d="M5258 3723 c7 -3 16 -2 19 1 4 3 -2 6 -13 5 -11 0 -14 -3 -6 -6z"/>
<path d="M4087 3637 c-24 -35 -31 -54 -24 -58 7 -4 48 -10 91 -14 91 -8 165
-26 248 -59 l57 -23 9 41 c13 61 -5 98 -54 114 -49 17 -162 39 -235 46 l-57 6
-35 -53z"/>
<path d="M1423 3563 c-20 -7 -15 -23 7 -23 11 0 20 4 20 9 0 13 -12 19 -27 14z"/>
<path d="M4567 3559 c7 -7 15 -10 18 -7 3 3 -2 9 -12 12 -14 6 -15 5 -6 -5z"/>
<path d="M5300 3534 c0 -14 4 -23 9 -20 5 3 7 15 4 26 -7 28 -13 25 -13 -6z"/>
<path d="M3888 3533 c7 -3 16 -2 19 1 4 3 -2 6 -13 5 -11 0 -14 -3 -6 -6z"/>
<path d="M4562 3506 c-41 -11 -66 -32 -56 -48 8 -13 24 -9 24 6 0 14 29 26 68
26 l23 0 -26 -24 c-31 -29 -29 -36 30 -76 41 -28 77 -77 150 -205 24 -43 32
-44 40 -6 4 20 11 28 21 24 8 -3 14 0 14 7 0 6 4 9 9 6 29 -18 -43 119 -94
179 -18 22 -23 25 -19 10 5 -16 4 -17 -4 -5 -6 8 -8 18 -5 23 5 8 -70 85 -86
88 -25 6 -52 4 -89 -5z m208 -136 c0 -5 -4 -10 -10 -10 -5 0 -10 5 -10 10 0 6
5 10 10 10 6 0 10 -4 10 -10z m21 -50 c12 0 12 -27 -1 -35 -6 -4 -7 1 -3 11 4
10 2 15 -3 11 -5 -3 -10 6 -11 21 0 15 1 19 4 10 2 -10 9 -18 14 -18z m29 -82
c0 -5 -4 -8 -10 -8 -5 0 -10 10 -10 23 0 18 2 19 10 7 5 -8 10 -18 10 -22z"/>
<path d="M3918 3453 c7 -3 16 -2 19 1 4 3 -2 6 -13 5 -11 0 -14 -3 -6 -6z"/>
<path d="M910 3436 c7 -7 13 -7 20 0 6 6 3 10 -10 10 -13 0 -16 -4 -10 -10z"/>
<path d="M4038 3429 c12 -33 37 -35 88 -9 66 32 90 14 98 -76 1 -22 8 -62 14
-89 6 -28 15 -98 20 -157 5 -59 11 -110 14 -113 8 -9 76 24 86 41 5 9 5 38 1
67 -5 28 -7 53 -4 55 3 3 11 -36 18 -88 4 -25 35 -23 62 4 22 22 25 34 25 89
0 43 -5 68 -14 76 -11 10 -11 18 1 53 10 29 11 44 3 52 -7 7 -10 5 -10 -5 0
-8 -9 -33 -20 -54 l-21 -40 21 -14 c29 -19 30 -125 1 -141 -29 -15 -31 -13
-31 28 0 47 -20 78 -45 68 -15 -5 -16 -15 -10 -70 6 -59 5 -65 -15 -76 -12 -6
-24 -10 -26 -7 -8 7 -24 120 -24 166 0 39 2 43 22 38 35 -10 76 20 103 73 14
27 21 51 17 53 -4 3 -52 24 -107 47 -85 36 -113 43 -188 48 l-87 4 8 -23z"/>
<path d="M893 3415 c0 -8 4 -12 9 -9 5 3 6 10 3 15 -9 13 -12 11 -12 -6z"/>
<path d="M1330 3319 c0 -5 5 -7 10 -4 6 3 10 8 10 11 0 2 -4 4 -10 4 -5 0 -10
-5 -10 -11z"/>
<path d="M4476 3218 c-4 -55 -5 -102 -3 -104 2 -3 17 2 33 11 16 8 34 15 40
15 16 0 19 -176 4 -185 -17 -11 -56 3 -90 31 -29 25 -34 26 -72 15 -86 -26
-105 -76 -73 -198 8 -31 15 -96 16 -143 1 -131 31 -202 75 -175 12 8 25 2 55
-27 22 -21 47 -38 55 -38 12 0 14 -5 8 -17 -19 -44 -16 -95 6 -125 17 -24 23
-46 24 -104 2 -41 -1 -77 -6 -80 -4 -3 -8 -14 -8 -25 0 -12 4 -17 11 -13 14 8
8 -88 -5 -98 -6 -4 -6 -12 1 -20 5 -7 13 -23 15 -35 6 -21 5 -22 -21 -6 -61
38 -94 93 -136 220 -36 112 -61 147 -107 151 -43 4 -72 -26 -88 -92 -19 -73
-28 -89 -44 -74 -34 34 -76 67 -95 78 l-22 11 31 35 c40 47 44 102 8 141 -24
26 -133 47 -192 37 -61 -10 -88 -27 -145 -91 -68 -76 -104 -150 -109 -225 -4
-51 -1 -63 22 -96 36 -53 33 -86 -15 -157 -33 -49 -40 -67 -38 -101 2 -25 -3
-51 -13 -65 -15 -22 -14 -27 8 -71 14 -27 28 -48 33 -48 6 0 19 14 31 30 23
33 57 40 67 13 6 -14 7 -14 14 4 9 24 49 38 49 18 0 -51 -24 -117 -56 -149
-19 -19 -34 -42 -34 -51 0 -20 38 -95 48 -95 4 0 24 27 45 61 35 56 39 59 51
43 19 -26 71 -23 138 8 59 27 112 74 102 89 -3 5 -18 9 -35 9 -33 0 -33 0 -18
54 16 59 19 77 9 71 -5 -3 -11 -1 -15 5 -3 5 13 26 37 47 24 21 56 50 71 66
l29 27 57 -25 c31 -14 85 -41 121 -59 62 -33 123 -56 183 -70 22 -5 27 -4 21
6 -6 11 -4 11 7 0 12 -11 12 -14 0 -21 -11 -7 -11 -15 -3 -40 6 -17 8 -30 4
-28 -4 1 -7 -1 -7 -4 0 -4 -9 -17 -20 -30 -11 -12 -15 -19 -8 -16 6 4 14 3 17
-1 3 -5 -6 -14 -20 -21 -22 -10 -31 -7 -68 19 -24 16 -67 50 -97 75 -29 25
-58 44 -64 42 -5 -2 -11 -27 -11 -56 -2 -64 -21 -88 -80 -97 -39 -6 -44 -9
-44 -33 0 -42 42 -93 104 -127 22 -12 50 -15 128 -11 110 5 144 1 129 -17 -5
-6 -12 -33 -15 -59 -3 -27 -9 -53 -12 -59 -4 -6 -3 -8 3 -5 5 3 -1 -16 -14
-42 -30 -61 -35 -170 -10 -220 9 -18 14 -37 11 -42 -3 -5 -2 -9 3 -8 33 6 47
-16 16 -24 -15 -3 -14 -6 7 -15 l25 -11 -30 -1 c-27 -1 -28 -2 -13 -14 10 -7
15 -16 11 -20 -10 -9 -14 -33 -16 -93 -1 -29 -4 -53 -8 -53 -16 0 -16 -75 0
-94 9 -11 11 -16 4 -12 -14 8 -24 -21 -27 -81 -1 -21 -5 -44 -10 -51 -4 -7 -5
-24 -2 -38 4 -13 2 -33 -4 -44 -8 -14 -8 -20 0 -20 6 0 2 -13 -10 -29 -11 -17
-16 -32 -11 -36 14 -8 5 -106 -11 -117 -9 -6 -6 -7 10 -3 19 5 22 3 22 -19 0
-29 -16 -35 -23 -9 -4 17 -5 17 -6 1 0 -10 -5 -18 -11 -18 -5 0 -7 -8 -3 -18
3 -9 3 -14 -1 -11 -4 4 -8 35 -10 70 -1 35 -13 92 -26 127 -21 57 -22 67 -10
102 12 36 11 42 -5 60 -44 49 -155 -27 -179 -122 -4 -16 -13 -28 -23 -28 -15
0 -16 24 -1 159 4 36 -5 83 -20 101 -20 25 -78 34 -87 13 -3 -9 0 -11 6 -7 6
4 -1 -15 -16 -41 -25 -42 -30 -59 -34 -128 -1 -24 -21 -11 -21 14 0 13 4 18
12 13 6 -4 -6 12 -28 34 -21 23 -44 42 -50 42 -6 0 -11 11 -11 25 0 23 8 30
31 26 5 -1 16 1 24 4 13 5 12 8 -4 19 -13 10 -24 11 -41 3 -13 -6 -23 -14 -23
-19 0 -4 -4 -8 -10 -8 -18 0 -10 17 13 27 19 9 18 10 -13 8 -37 -3 -41 -16
-13 -47 9 -10 13 -18 9 -18 -11 0 -50 24 -62 39 -9 11 -14 9 -31 -13 -12 -14
-27 -26 -33 -26 -9 0 -7 -7 5 -20 18 -20 18 -21 0 -14 -15 6 -17 4 -11 -11 4
-12 0 -24 -13 -36 -19 -18 -20 -17 -36 8 -17 25 -17 27 5 43 33 25 20 64 -43
133 -53 57 -54 57 -111 57 -90 0 -146 -41 -181 -134 -22 -58 -15 -83 41 -141
45 -48 46 -50 40 -99 -3 -28 -8 -66 -12 -85 -13 -65 54 -141 126 -145 23 -1
40 2 40 8 0 6 4 6 8 -1 5 -8 26 -12 55 -11 45 2 46 3 29 23 -9 11 -13 17 -8
13 5 -4 15 -1 22 7 9 9 28 12 52 10 20 -3 29 -2 20 1 -27 8 -22 32 5 27 12 -2
36 3 52 11 17 9 24 16 17 16 -7 0 -10 5 -7 11 4 6 30 9 58 8 51 -3 52 -2 75
36 21 37 22 38 16 10 -9 -40 -48 -91 -84 -110 -39 -20 -57 -20 -40 0 7 8 20
15 29 15 14 0 14 2 1 10 -19 12 -33 13 -26 1 4 -5 1 -11 -4 -13 -6 -2 -12 -11
-14 -21 -1 -10 -15 -25 -31 -33 -33 -17 -47 -10 -19 11 17 13 16 14 -14 4 -18
-6 -31 -16 -29 -23 6 -17 678 -20 689 -3 6 9 8 9 8 0 0 -10 72 -13 325 -13
179 0 325 2 325 4 0 2 -6 15 -13 29 -11 21 -16 24 -26 14 -10 -9 -11 -8 -6 6
4 9 11 17 16 17 5 0 10 19 10 43 1 23 3 33 6 22 7 -29 19 -39 27 -20 3 9 2 13
-4 10 -5 -3 -5 7 1 24 6 17 9 36 6 43 -3 7 -6 3 -6 -9 -1 -13 -6 -23 -12 -23
-8 0 -9 11 -4 33 15 68 15 109 1 104 -9 -4 -12 2 -8 19 4 23 5 23 18 7 7 -10
14 -23 14 -29 0 -12 59 -44 80 -44 10 0 9 -4 0 -15 -10 -13 -11 -18 -1 -28 7
-7 11 -7 10 -2 -1 6 2 21 8 35 7 18 3 73 -15 205 -14 99 -27 182 -29 184 -10
13 -18 -20 -24 -96 -6 -69 -11 -90 -27 -102 -11 -9 -22 -23 -25 -31 -4 -10 -6
-8 -6 7 -1 12 4 25 9 28 6 4 8 11 5 16 -4 5 1 9 9 9 9 0 16 7 16 16 0 8 -4 12
-10 9 -6 -4 -10 7 -10 27 0 21 -3 28 -9 20 -4 -7 -6 23 -4 68 3 58 1 80 -8 80
-7 0 -10 3 -7 6 4 3 15 1 27 -5 15 -8 22 -8 27 1 4 7 3 10 -1 5 -5 -4 -17 0
-27 10 -30 27 -21 34 16 12 26 -15 33 -25 30 -42 -4 -19 -3 -19 6 3 7 14 9 47
6 75 -3 28 -11 125 -16 217 -6 92 -27 275 -46 405 -46 304 -64 480 -66 618 0
61 -7 135 -15 165 -7 30 -18 84 -22 120 -5 36 -16 91 -25 122 -16 53 -19 57
-47 56 -42 -1 -149 103 -149 144 0 15 4 28 8 28 4 0 7 23 6 50 -2 49 -1 50 27
50 16 0 29 4 29 9 0 9 -23 59 -118 261 -12 26 -18 30 -20 17 -2 -10 -16 -20
-33 -24 -35 -7 -54 -35 -40 -60 5 -10 23 -31 40 -47 17 -17 31 -34 31 -39 0
-4 7 -15 15 -23 8 -9 15 -21 15 -27 0 -7 -4 -6 -10 3 -8 12 -9 9 -7 -10 4 -22
-1 -26 -42 -37 -57 -15 -64 -15 -56 -3 3 6 2 10 -3 10 -9 0 -11 29 -14 157
l-2 72 44 39 45 39 -36 54 c-20 30 -41 70 -48 90 -13 40 -50 79 -97 102 l-31
16 -7 -101z m54 7 c17 -9 30 -20 30 -25 0 -6 1 -12 3 -15 1 -3 -17 -15 -41
-25 l-44 -20 6 38 c3 20 5 43 6 50 0 16 5 15 40 -3z m225 -1102 c-2 -7 10 -26
27 -44 29 -28 36 -31 76 -25 24 3 57 15 73 27 25 18 30 18 34 5 3 -9 7 -23 10
-32 3 -10 1 -14 -7 -11 -9 3 -13 -11 -14 -49 -1 -30 0 -54 3 -54 2 0 15 24 29
53 l25 52 -5 -43 c-2 -24 -13 -53 -23 -64 -10 -11 -17 -23 -17 -27 1 -3 -12
-19 -29 -36 l-30 -30 7 35 6 35 -25 -29 c-14 -16 -25 -33 -25 -38 0 -5 -13
-28 -29 -51 -15 -23 -38 -63 -49 -89 -11 -27 -24 -48 -27 -48 -20 0 -63 32
-68 50 -7 26 16 51 71 79 55 28 68 46 32 46 -16 0 -28 -4 -27 -9 1 -5 -4 -11
-10 -13 -8 -3 -13 4 -13 17 0 16 -4 20 -15 16 -8 -3 -15 -1 -15 4 0 6 6 10 13
10 8 0 7 4 -3 10 -8 5 -10 10 -5 10 6 0 10 33 10 81 0 51 4 84 12 90 12 10 7
39 -9 50 -4 3 -5 27 -1 55 l7 49 8 -35 c4 -19 5 -40 3 -47z m121 -363 c-2 -17
0 -33 5 -36 5 -3 9 3 9 12 0 10 2 15 5 12 7 -6 -13 -92 -30 -134 -8 -19 -10
-36 -4 -46 6 -11 5 -19 -1 -23 -5 -3 -10 -19 -10 -35 0 -15 -4 -30 -9 -32 -5
-1 -12 -22 -14 -45 -3 -23 -9 -48 -13 -55 -5 -7 -7 -21 -5 -32 1 -10 -1 -16
-6 -13 -5 3 -9 -11 -9 -30 0 -20 -5 -38 -12 -41 -7 -2 -12 -8 -12 -13 0 -6 4
-7 10 -4 7 4 7 -3 0 -20 -6 -15 -11 -44 -12 -66 -1 -21 -6 -39 -12 -40 -6 0
-2 -4 9 -9 16 -7 14 -9 -15 -9 -53 -1 -63 9 -45 46 9 17 16 61 17 98 2 62 4
68 30 81 19 10 29 25 34 49 11 58 -30 108 -148 180 -27 17 -33 27 -34 58 -1
31 6 46 38 80 21 23 38 35 37 27 -4 -38 4 -51 41 -70 21 -11 45 -20 52 -20 13
1 76 95 91 137 12 32 17 29 13 -7z m-1226 -125 c11 -20 11 -28 1 -38 -15 -15
-31 6 -31 41 0 29 13 28 30 -3z m378 2 c2 -10 0 -26 -4 -35 -4 -9 -7 -20 -6
-24 1 -4 -3 -19 -8 -33 -7 -19 -16 -26 -33 -24 -12 2 -28 0 -35 -5 -25 -15
-34 9 -22 54 24 88 26 92 67 88 27 -2 39 -8 41 -21z m-108 -7 c0 -11 -6 -20
-14 -20 -9 0 -12 -7 -9 -19 3 -14 -3 -24 -24 -35 l-28 -16 28 6 c19 4 27 2 27
-8 0 -22 -22 -38 -53 -38 -21 0 -28 -4 -25 -18 3 -18 -51 -112 -64 -112 -4 0
-10 11 -14 25 -4 18 1 33 18 53 13 16 32 57 42 93 24 86 28 93 62 100 49 11
54 10 54 -11z m622 -152 c-9 -9 -7 -15 6 -25 19 -16 -4 -7 -26 10 -11 8 -11
12 0 18 20 13 34 11 20 -3z m-15 -285 c-3 -10 -5 -2 -5 17 0 19 2 27 5 18 2
-10 2 -26 0 -35z m120 -318 c3 -22 38 -55 58 -55 7 0 15 -6 18 -14 6 -15 -12
-30 -79 -64 l-42 -21 3 84 c2 46 7 94 10 106 7 21 8 22 18 3 6 -10 13 -28 14
-39z m-147 -299 c0 -3 -4 -8 -10 -11 -5 -3 -10 -1 -10 4 0 6 5 11 10 11 6 0
10 -2 10 -4z m-685 -176 c-10 -11 -22 -20 -27 -20 -10 0 24 38 36 39 5 1 1 -8
-9 -19z m-75 -44 c0 -3 -4 -8 -10 -11 -5 -3 -10 -1 -10 4 0 6 5 11 10 11 6 0
10 -2 10 -4z m247 -138 c-3 -7 -5 -2 -5 12 0 14 2 19 5 13 2 -7 2 -19 0 -25z
m-172 -118 c-3 -5 -13 -10 -21 -10 -8 0 -12 5 -9 10 3 6 13 10 21 10 8 0 12
-4 9 -10z"/>
<path d="M4861 1674 c0 -11 3 -14 6 -6 3 7 2 16 -1 19 -3 4 -6 -2 -5 -13z"/>
<path d="M4628 763 c7 -3 16 -2 19 1 4 3 -2 6 -13 5 -11 0 -14 -3 -6 -6z"/>
<path d="M5337 3290 c-3 -11 -2 -22 3 -25 4 -3 10 6 12 20 6 30 -7 34 -15 5z"/>
<path d="M5311 3274 c0 -11 3 -14 6 -6 3 7 2 16 -1 19 -3 4 -6 -2 -5 -13z"/>
<path d="M5360 3269 c0 -5 5 -7 10 -4 6 3 10 8 10 11 0 2 -4 4 -10 4 -5 0 -10
-5 -10 -11z"/>
<path d="M1291 3244 c0 -11 3 -14 6 -6 3 7 2 16 -1 19 -3 4 -6 -2 -5 -13z"/>
<path d="M5321 3243 c-1 -7 3 -22 8 -35 5 -13 12 -36 16 -51 4 -22 11 -28 27
-25 12 2 23 9 26 17 3 10 -2 12 -19 8 -23 -6 -24 -3 -26 40 -1 27 2 41 6 34 5
-8 11 -9 15 -3 3 5 -1 13 -9 16 -10 3 -18 -1 -22 -11 -6 -15 -7 -14 -14 3 -4
10 -8 14 -8 7z"/>
<path d="M870 3225 c0 -26 16 -35 36 -20 17 14 18 15 0 9 -11 -4 -22 -1 -27 7
-5 8 -9 10 -9 4z"/>
<path d="M825 3200 c-3 -6 1 -7 9 -4 18 7 21 14 7 14 -6 0 -13 -4 -16 -10z"/>
<path d="M848 3183 c7 -3 16 -2 19 1 4 3 -2 6 -13 5 -11 0 -14 -3 -6 -6z"/>
<path d="M5425 3171 c-3 -5 -1 -12 5 -16 5 -3 10 1 10 9 0 18 -6 21 -15 7z"/>
<path d="M4897 3105 c-4 -11 -2 -36 3 -55 12 -43 13 -40 -5 -40 -21 0 -19 -8
20 -91 32 -69 34 -71 30 -34 -3 22 -7 67 -9 100 -3 33 -11 78 -19 100 -12 34
-15 37 -20 20z"/>
<path d="M5387 3104 c-4 -4 -7 -17 -7 -28 1 -19 1 -20 11 -3 11 19 8 43 -4 31z"/>
<path d="M5431 3094 c0 -11 3 -14 6 -6 3 7 2 16 -1 19 -3 4 -6 -2 -5 -13z"/>
<path d="M5414 3054 c3 -9 6 -20 6 -25 0 -6 4 -8 9 -5 12 8 2 46 -11 46 -6 0
-7 -7 -4 -16z"/>
<path d="M706 2964 c-4 -42 -5 -79 -2 -82 10 -9 28 53 28 97 0 78 -19 67 -26
-15z"/>
<path d="M5420 2985 c0 -14 2 -25 4 -25 2 0 6 11 8 25 3 14 1 25 -3 25 -5 0
-9 -11 -9 -25z"/>
<path d="M5445 2960 c-15 -17 -16 -20 -3 -20 9 0 19 7 22 16 10 25 1 27 -19 4z"/>
<path d="M1175 2960 c-3 -5 3 -10 15 -10 12 0 18 5 15 10 -3 6 -10 10 -15 10
-5 0 -12 -4 -15 -10z"/>
<path d="M5456 2922 c-2 -4 11 -7 30 -8 19 0 32 1 29 4 -7 8 -55 11 -59 4z"/>
<path d="M5480 2891 c0 -5 5 -11 10 -13 6 -2 12 -12 12 -24 1 -12 9 -20 20
-20 19 0 21 5 12 31 -5 12 -9 13 -14 5 -5 -9 -10 -6 -15 9 -6 21 -25 30 -25
12z"/>
<path d="M4977 2870 c-4 -15 -1 -28 6 -33 8 -6 4 -7 -10 -4 -21 5 -21 4 -7
-42 8 -25 26 -95 39 -156 14 -60 36 -157 50 -215 13 -58 27 -123 30 -145 11
-66 14 -71 31 -47 8 12 21 22 29 22 23 0 25 15 9 71 -13 43 -18 50 -26 36 -5
-10 -8 -39 -6 -64 2 -30 -1 -48 -9 -50 -10 -4 -12 13 -9 69 5 85 -3 144 -15
113 -5 -14 -7 -6 -7 23 0 23 -5 49 -12 57 -7 8 -10 22 -6 30 3 8 0 15 -6 15
-6 0 -8 3 -5 7 4 3 2 12 -4 20 -6 7 -8 13 -4 13 4 0 3 6 -2 13 -6 6 -16 56
-23 110 -6 54 -17 117 -24 140 -11 38 -13 40 -19 17z"/>
<path d="M4065 2801 c-42 -25 -65 -53 -81 -98 -24 -67 -18 -99 26 -146 28 -31
41 -56 46 -88 7 -45 27 -85 54 -106 17 -14 128 -17 148 -5 37 24 33 122 -8
174 -16 21 -18 31 -10 58 5 18 7 37 4 42 -3 5 -30 20 -60 33 l-54 24 25 25
c29 29 31 52 9 84 -19 27 -58 29 -99 3z"/>
<path d="M5591 2784 c0 -11 3 -14 6 -6 3 7 2 16 -1 19 -3 4 -6 -2 -5 -13z"/>
<path d="M5585 2750 c-7 -12 12 -50 25 -50 16 0 11 17 -6 24 -9 4 -14 13 -10
21 6 17 0 20 -9 5z"/>
<path d="M1158 2693 c7 -3 16 -2 19 1 4 3 -2 6 -13 5 -11 0 -14 -3 -6 -6z"/>
<path d="M1116 2657 c3 -10 9 -15 12 -12 3 3 0 11 -7 18 -10 9 -11 8 -5 -6z"/>
<path d="M1040 2605 c0 -9 -6 -12 -17 -8 -11 4 -14 3 -9 -5 12 -19 36 -14 36
8 0 11 -2 20 -5 20 -3 0 -5 -7 -5 -15z"/>
<path d="M5716 2585 c-9 -26 -7 -32 5 -12 6 10 9 21 6 23 -2 3 -7 -2 -11 -11z"/>
<path d="M5743 2505 c0 -8 4 -12 9 -9 5 3 6 10 3 15 -9 13 -12 11 -12 -6z"/>
<path d="M5800 2410 c0 -5 5 -10 11 -10 5 0 7 5 4 10 -3 6 -8 10 -11 10 -2 0
-4 -4 -4 -10z"/>
<path d="M607 2380 c-4 -19 -7 -100 -6 -180 0 -80 0 -153 -1 -162 -3 -54 -2
-67 4 -108 9 -67 24 -139 41 -195 8 -27 22 -90 31 -140 29 -168 31 -166 32 33
1 150 -2 206 -15 250 -8 31 -15 73 -14 92 3 50 -8 100 -21 100 -24 0 -36 33
-26 69 10 34 6 119 -10 226 l-8 50 -7 -35z m26 -380 c3 -11 1 -18 -4 -14 -5 3
-9 12 -9 20 0 20 7 17 13 -6z m65 -365 c-3 -3 -9 2 -12 12 -6 14 -5 15 5 6 7
-7 10 -15 7 -18z"/>
<path d="M653 2385 c0 -14 3 -25 8 -25 5 0 9 9 9 19 0 11 -4 22 -9 25 -5 3 -8
-6 -8 -19z"/>
<path d="M5816 2355 c4 -8 11 -15 16 -15 6 0 5 6 -2 15 -7 8 -14 15 -16 15 -2
0 -1 -7 2 -15z"/>
<path d="M5508 2303 c7 -3 16 -2 19 1 4 3 -2 6 -13 5 -11 0 -14 -3 -6 -6z"/>
<path d="M696 2268 c-10 -37 -7 -70 5 -62 8 5 8 1 0 -14 -7 -13 -8 -35 -3 -57
13 -66 26 -37 23 53 -3 88 -13 122 -25 80z"/>
<path d="M5505 2280 c18 -8 17 -9 -8 -9 -25 -1 -27 -4 -21 -23 8 -27 33 -48
54 -47 10 0 11 2 3 6 -18 7 -16 43 2 43 8 0 15 4 15 10 0 11 -33 30 -52 29 -7
0 -4 -4 7 -9z"/>
<path d="M661 2254 c0 -11 3 -14 6 -6 3 7 2 16 -1 19 -3 4 -6 -2 -5 -13z"/>
<path d="M5111 2200 c-17 -11 70 -550 94 -586 8 -12 10 -25 5 -30 -5 -5 0 -71
11 -149 11 -77 28 -216 39 -309 11 -94 23 -172 25 -174 10 -10 38 75 42 129 5
52 4 56 -22 73 -20 13 -26 24 -22 42 2 13 1 21 -3 19 -4 -3 -2 12 5 32 15 44
29 51 56 27 18 -17 19 -16 19 15 0 29 -34 274 -45 328 -5 19 -8 20 -35 10 -25
-10 -33 -9 -47 6 -16 16 -16 19 -3 27 13 8 13 10 -1 10 -11 0 -16 9 -16 25 0
15 5 25 13 25 8 0 14 -7 14 -15 0 -8 5 -15 10 -15 6 0 10 -6 10 -13 0 -7 10
-13 21 -14 20 -2 21 1 15 51 -3 29 -15 98 -26 152 -18 92 -22 101 -57 131 -21
18 -32 33 -24 33 8 0 11 6 7 15 -3 8 -1 15 3 15 12 0 23 -29 15 -41 -3 -5 0
-9 5 -9 14 0 14 7 -5 82 -25 105 -31 115 -65 114 -17 -1 -34 -3 -38 -6z"/>
<path d="M5468 2203 c6 -2 18 -2 25 0 6 3 1 5 -13 5 -14 0 -19 -2 -12 -5z"/>
<path d="M2960 2059 c-122 -184 -118 -194 127 -299 56 -24 101 -24 181 1 36
11 48 11 86 -3 60 -22 78 -9 83 63 7 81 -18 112 -142 175 -55 28 -123 65 -152
83 -31 20 -70 35 -96 38 l-45 5 -42 -63z"/>
<path d="M4535 1920 c-3 -5 -1 -10 4 -10 6 0 11 5 11 10 0 6 -2 10 -4 10 -3 0
-8 -4 -11 -10z"/>
<path d="M1756 1845 c-9 -26 -7 -32 5 -12 6 10 9 21 6 23 -2 3 -7 -2 -11 -11z"/>
<path d="M2796 1729 c-8 -20 -16 -27 -21 -20 -10 16 -29 -1 -57 -50 -12 -22
-36 -48 -54 -58 -18 -11 -42 -38 -54 -60 -17 -34 -25 -41 -50 -41 -23 0 -31
-5 -35 -22 -2 -13 -14 -62 -25 -109 -11 -48 -20 -93 -20 -101 0 -16 40 -55 84
-82 17 -11 39 -42 57 -82 16 -35 34 -64 41 -64 6 0 22 9 34 21 25 23 23 25 81
-49 35 -45 68 -41 104 13 53 77 41 131 -28 137 -41 3 -44 14 -28 79 5 17 2 31
-9 42 -18 17 -22 32 -6 22 9 -6 14 14 11 43 -2 12 30 17 41 7 3 -3 3 -16 1
-30 -4 -15 -10 -22 -20 -18 -11 4 -13 -1 -7 -23 10 -46 20 -50 101 -45 31 2
83 49 83 75 0 26 -50 86 -71 86 -11 0 -11 -2 1 -10 8 -5 11 -10 5 -10 -5 0
-16 4 -24 9 -11 7 -9 13 8 30 11 11 23 31 26 44 6 24 -26 122 -64 193 -20 38
-75 104 -86 104 -3 0 -12 -14 -19 -31z m-29 -195 c-3 -3 -12 -4 -19 -1 -8 3
-5 6 6 6 11 1 17 -2 13 -5z m37 -30 c5 -14 4 -15 -9 -4 -17 14 -19 20 -6 20 5
0 12 -7 15 -16z m-56 -55 c-3 -8 -7 -3 -11 10 -4 17 -3 21 5 13 5 -5 8 -16 6
-23z m49 9 c-3 -8 -6 -5 -6 6 -1 11 2 17 5 13 3 -3 4 -12 1 -19z m47 -38 c10
-13 9 -13 -6 -1 -10 7 -18 10 -18 6 0 -5 -2 -6 -5 -3 -3 3 -2 13 2 24 5 14 8
15 11 3 3 -7 10 -21 16 -29z m-97 -12 c-3 -8 -6 -5 -6 6 -1 11 2 17 5 13 3 -3
4 -12 1 -19z m98 -18 c3 -5 1 -10 -4 -10 -6 0 -11 5 -11 10 0 6 2 10 4 10 3 0
8 -4 11 -10z m48 -72 c-2 -18 -4 -38 -5 -44 -1 -6 -10 -9 -22 -6 -18 5 -18 7
-4 10 10 2 17 11 16 20 -3 35 2 63 10 58 5 -3 7 -20 5 -38z m-93 22 c0 -5 -4
-10 -10 -10 -5 0 -10 5 -10 10 0 6 5 10 10 10 6 0 10 -4 10 -10z"/>
<path d="M3220 1629 c-46 -10 -90 -59 -90 -102 0 -17 9 -52 20 -76 33 -72 21
-116 -38 -140 -34 -14 -69 -71 -77 -127 -6 -34 7 -141 21 -179 4 -8 -8 -17
-31 -25 -71 -23 -95 -113 -55 -202 34 -77 61 -97 144 -107 l51 -6 8 -52 c5
-30 14 -53 20 -53 21 1 69 88 67 122 -1 18 -2 48 -1 66 l1 34 36 -23 37 -22
27 33 c26 32 27 33 53 15 34 -22 65 -14 94 24 36 46 39 76 9 104 l-25 24 24
33 c30 41 31 65 6 104 -18 27 -18 31 -4 41 9 7 34 10 58 7 39 -4 44 -2 72 34
16 22 42 58 57 81 l28 42 -46 90 c-75 147 -124 231 -137 231 -12 0 -59 -72
-59 -90 0 -8 9 -35 20 -59 11 -24 19 -46 16 -48 -2 -2 -11 12 -20 32 -23 47
-44 55 -67 24 -27 -36 -34 -16 -20 61 13 72 9 120 -10 120 -6 0 -22 -9 -36
-20 -30 -24 -46 -25 -62 -6 -15 18 -48 24 -91 15z m408 -209 l73 -140 -43 -63
c-31 -45 -51 -63 -69 -65 -36 -4 -48 15 -50 83 -2 67 -22 109 -71 151 -25 20
-30 29 -22 42 18 28 30 23 50 -20 20 -45 40 -54 58 -26 8 14 4 29 -17 72 -27
53 -27 56 -11 81 9 14 19 25 23 25 3 0 39 -63 79 -140z m-263 -9 c-3 -5 -1
-12 5 -16 14 -8 13 -26 -1 -22 -6 1 -14 -4 -16 -11 -3 -8 1 -10 12 -5 14 5 16
2 10 -18 -4 -13 -14 -31 -21 -40 -8 -8 -14 -25 -14 -37 0 -12 -4 -22 -10 -22
-5 0 -10 -12 -11 -27 0 -16 -3 -21 -6 -13 -2 8 -7 22 -9 30 -7 21 -23 -7 -17
-30 3 -10 0 -21 -6 -24 -6 -4 -11 -18 -11 -32 0 -19 -5 -24 -24 -24 -14 0 -27
-6 -29 -12 -2 -7 -3 1 -1 17 3 17 18 50 34 75 16 25 39 65 51 89 16 33 23 40
31 30 6 -10 7 -4 3 17 -4 21 -1 35 9 43 8 7 12 19 9 27 -3 8 0 14 7 14 6 0 9
-4 5 -9z m118 -325 c15 -30 27 -61 27 -68 -1 -7 -16 -30 -34 -50 l-33 -38 -19
21 c-17 19 -18 21 -1 30 25 14 21 42 -13 103 l-31 54 28 10 c35 12 43 5 76
-62z m-115 19 c-3 -3 -9 2 -12 12 -6 14 -5 15 5 6 7 -7 10 -15 7 -18z m-17
-32 c7 -16 15 -31 17 -35 2 -5 -6 -8 -17 -8 -12 0 -21 -4 -21 -10 0 -19 -17
-10 -28 15 -10 21 -9 29 5 45 23 26 27 25 44 -7z m54 -33 c9 -16 13 -30 11
-30 -3 0 -12 14 -21 30 -9 17 -13 30 -11 30 3 0 12 -13 21 -30z m-195 -26 c0
-8 -4 -12 -10 -9 -5 3 -10 13 -10 21 0 8 5 12 10 9 6 -3 10 -13 10 -21z m90
-36 c12 -35 26 -71 31 -80 5 -10 9 -21 9 -24 0 -8 -89 62 -113 89 -17 19 -17
21 10 49 14 15 30 28 34 28 3 0 16 -28 29 -62z m-11 -104 c69 -55 70 -56 54
-80 l-15 -24 -41 30 c-22 16 -46 43 -53 58 -18 44 -26 72 -20 72 3 0 37 -25
75 -56z m-72 -241 c-13 -14 -16 -13 -22 7 -5 15 -1 26 12 35 16 12 18 11 21
-7 2 -11 -3 -27 -11 -35z"/>
<path d="M3583 1319 c-32 -32 -1 -106 32 -79 20 17 19 43 -2 69 -15 18 -20 20
-30 10z"/>
<path d="M3315 1290 c-3 -5 -1 -10 4 -10 6 0 11 5 11 10 0 6 -2 10 -4 10 -3 0
-8 -4 -11 -10z"/>
<path d="M3305 1261 c-3 -5 -1 -12 5 -16 5 -3 10 1 10 9 0 18 -6 21 -15 7z"/>
<path d="M3241 1168 c-5 -13 -5 -27 0 -32 11 -12 15 -8 23 27 8 33 -11 37 -23
5z"/>
<path d="M3700 1480 c0 -11 7 -20 15 -20 17 0 18 2 9 24 -9 23 -24 20 -24 -4z"/>
<path d="M2375 1390 c-3 -5 -1 -10 4 -10 6 0 11 5 11 10 0 6 -2 10 -4 10 -3 0
-8 -4 -11 -10z"/>
<path d="M811 1364 c0 -11 3 -14 6 -6 3 7 2 16 -1 19 -3 4 -6 -2 -5 -13z"/>
<path d="M5962 1350 c0 -14 2 -19 5 -12 2 6 2 18 0 25 -3 6 -5 1 -5 -13z"/>
<path d="M3902 1283 c-34 -20 -60 -38 -58 -41 2 -2 -12 -37 -31 -78 -57 -120
-58 -244 -1 -244 32 0 90 -23 119 -47 32 -28 79 -117 79 -152 0 -12 5 -21 11
-21 7 0 9 -10 6 -26 -3 -18 -1 -24 9 -20 8 3 14 1 14 -4 0 -14 81 -58 121 -65
108 -20 199 65 199 185 0 52 -17 98 -66 175 -19 29 -35 71 -39 100 -11 77 -29
111 -97 179 -107 106 -164 119 -266 59z"/>
<path d="M3030 1269 c0 -5 5 -7 10 -4 6 3 10 8 10 11 0 2 -4 4 -10 4 -5 0 -10
-5 -10 -11z"/>
<path d="M6065 1251 c-3 -5 -1 -12 5 -16 5 -3 10 1 10 9 0 18 -6 21 -15 7z"/>
<path d="M5969 1200 c-7 -35 -4 -48 7 -38 3 4 4 21 2 40 l-3 33 -6 -35z"/>
<path d="M5996 1223 c-9 -9 -8 -53 2 -52 21 4 42 -2 37 -10 -3 -5 -1 -12 5
-16 10 -6 14 7 11 33 -1 6 5 12 14 12 8 0 15 5 15 10 0 6 -9 10 -20 10 -11 0
-20 -4 -20 -10 0 -5 -9 -10 -20 -10 -22 0 -27 16 -8 22 8 3 9 6 1 11 -5 4 -13
4 -17 0z"/>
<path d="M3011 1194 c0 -11 3 -14 6 -6 3 7 2 16 -1 19 -3 4 -6 -2 -5 -13z"/>
<path d="M2995 1160 c3 -5 8 -10 11 -10 2 0 4 5 4 10 0 6 -5 10 -11 10 -5 0
-7 -4 -4 -10z"/>
<path d="M5957 1143 c-12 -11 -8 -23 8 -23 8 0 15 7 15 15 0 16 -12 20 -23 8z"/>
<path d="M2446 1128 c-13 -41 -56 -252 -52 -255 9 -9 76 41 99 74 32 45 47
136 28 171 -13 24 -69 31 -75 10z"/>
<path d="M6077 1124 c-10 -11 6 -44 25 -50 26 -8 32 0 19 24 -11 20 -35 34
-44 26z"/>
<path d="M5356 1098 c-12 -47 -6 -95 14 -113 19 -18 20 -17 20 6 0 48 -13 129
-20 129 -4 0 -10 -10 -14 -22z"/>
<path d="M2330 1099 c0 -5 5 -7 10 -4 6 3 10 8 10 11 0 2 -4 4 -10 4 -5 0 -10
-5 -10 -11z"/>
<path d="M2939 1083 c-13 -16 -12 -17 4 -4 16 13 21 21 13 21 -2 0 -10 -8 -17
-17z"/>
<path d="M2910 1044 c0 -8 5 -12 10 -9 6 4 8 11 5 16 -9 14 -15 11 -15 -7z"/>
<path d="M2898 1008 c16 -16 15 -33 -1 -20 -10 8 -16 6 -26 -10 -11 -18 -11
-20 3 -15 9 4 16 3 16 -1 0 -15 -22 -30 -35 -25 -13 4 -17 -4 -29 -60 -4 -17
-11 -25 -18 -21 -6 4 -9 1 -6 -7 3 -8 -4 -22 -15 -32 -11 -9 -17 -20 -13 -24
4 -4 11 -1 16 7 5 8 12 11 17 7 14 -14 -21 -27 -74 -27 -28 0 -55 -4 -58 -10
-3 -5 -17 -10 -29 -10 -20 0 -26 8 -35 45 -9 38 -15 45 -36 45 -13 0 -40 -10
-61 -22 -29 -17 -40 -19 -55 -10 -62 39 -94 -12 -90 -147 0 -35 -4 -70 -9 -77
-15 -17 -30 -166 -30 -296 0 -101 1 -108 20 -108 28 0 56 -35 69 -84 19 -76
65 -94 158 -62 80 27 81 29 86 224 2 64 5 77 28 100 15 15 30 38 34 52 4 14
12 28 17 31 5 3 21 37 34 75 14 38 36 83 50 101 13 17 24 41 24 52 0 25 -20
71 -32 71 -9 0 8 34 31 63 8 9 11 20 8 23 -4 4 3 18 13 32 11 13 20 36 20 49
0 13 4 22 8 19 4 -2 14 9 21 25 13 31 3 59 -22 59 -7 0 -7 -4 1 -12z"/>
<path d="M5311 904 c0 -11 3 -14 6 -6 3 7 2 16 -1 19 -3 4 -6 -2 -5 -13z"/>
<path d="M5381 903 c-1 -13 -5 -23 -10 -23 -15 0 -22 -33 -9 -41 11 -7 11 -12
0 -29 -7 -11 -10 -25 -7 -30 4 -6 -2 -10 -11 -10 -16 0 -16 -1 2 -16 18 -15
18 -15 -3 -9 -14 4 -23 2 -23 -4 0 -6 5 -11 10 -11 6 0 1 -10 -10 -22 -23 -25
-23 -33 6 -233 25 -167 28 -290 10 -375 -19 -91 -20 -100 -2 -100 8 0 16 16
20 43 4 23 20 81 37 130 24 71 30 108 33 195 5 149 -14 423 -30 440 -10 10
-11 17 -3 30 7 12 8 28 1 52 -7 26 -10 29 -11 13z m6 -59 c-9 -9 -28 6 -21 18
4 6 10 6 17 -1 6 -6 8 -13 4 -17z m8 -54 c3 -5 -1 -10 -9 -10 -9 0 -16 5 -16
10 0 6 4 10 9 10 6 0 13 -4 16 -10z"/>
<path d="M6061 898 c0 -13 4 -32 9 -43 7 -15 9 -10 9 23 1 23 -3 42 -9 42 -5
0 -10 -10 -9 -22z"/>
<path d="M5332 820 c0 -14 2 -19 5 -12 2 6 2 18 0 25 -3 6 -5 1 -5 -13z"/>
<path d="M6110 825 c0 -8 2 -15 4 -15 2 0 6 7 10 15 3 8 1 15 -4 15 -6 0 -10
-7 -10 -15z"/>
<path d="M5300 743 c0 -43 5 -41 13 5 4 18 2 32 -3 32 -6 0 -10 -16 -10 -37z"/>
<path d="M6183 640 c0 -25 2 -35 4 -22 2 12 2 32 0 45 -2 12 -4 2 -4 -23z"/>
<path d="M3905 637 c-4 -10 -5 -21 -1 -24 10 -10 18 4 13 24 -4 17 -4 17 -12
0z"/>
<path d="M6241 634 c0 -11 3 -14 6 -6 3 7 2 16 -1 19 -3 4 -6 -2 -5 -13z"/>
<path d="M2911 621 c-12 -12 -23 -46 -31 -92 -9 -60 -20 -87 -58 -144 -44 -66
-47 -74 -47 -137 0 -53 4 -72 23 -97 12 -17 18 -31 13 -31 -6 0 -8 -7 -5 -15
4 -10 0 -15 -11 -15 -9 0 -14 -4 -10 -9 3 -6 -3 -15 -13 -20 -14 -7 -18 -18
-15 -36 3 -14 10 -25 17 -25 21 0 39 18 33 32 -3 8 4 20 15 27 11 7 17 8 14 3
-3 -6 1 -13 10 -16 24 -9 26 -8 14 16 -7 14 0 10 19 -12 17 -19 31 -38 31 -42
0 -11 470 -10 470 0 0 11 -55 42 -74 42 -9 0 -16 7 -16 16 0 54 -79 147 -140
165 -34 10 -40 18 -64 79 -35 90 -34 115 4 135 61 31 47 86 -32 126 -20 10
-53 30 -74 44 -44 30 -49 30 -73 6z"/>
<path d="M3922 575 c0 -16 2 -22 5 -12 2 9 2 23 0 30 -3 6 -5 -1 -5 -18z"/>
<path d="M5112 580 c0 -14 2 -19 5 -12 2 6 2 18 0 25 -3 6 -5 1 -5 -13z"/>
<path d="M6200 583 c0 -10 -3 -28 -6 -40 -5 -17 -2 -23 10 -23 12 0 16 10 16
40 0 22 -4 40 -10 40 -5 0 -10 -8 -10 -17z"/>
<path d="M3885 570 c-3 -5 1 -10 10 -10 9 0 13 5 10 10 -3 6 -8 10 -10 10 -2
0 -7 -4 -10 -10z"/>
<path d="M3885 540 c-4 -6 -4 -10 -1 -10 2 0 11 -3 20 -6 9 -3 16 -2 16 4 0
14 -28 23 -35 12z"/>
<path d="M690 433 c-1 -51 -3 -105 -5 -120 -7 -90 -16 -182 -20 -205 -3 -16
-1 -28 3 -28 5 0 17 69 27 153 13 116 15 169 7 222 l-9 70 -3 -92z"/>
<path d="M810 490 c-13 -8 -12 -10 3 -10 9 0 17 5 17 10 0 12 -1 12 -20 0z"/>
<path d="M6220 481 c0 -19 23 -35 34 -24 14 15 5 43 -14 43 -13 0 -20 -7 -20
-19z"/>
<path d="M3914 459 c0 -10 11 -23 23 -30 13 -7 23 -18 23 -26 0 -7 4 -13 9
-13 5 0 8 12 8 28 0 15 -2 21 -4 14 -6 -16 -33 3 -33 23 0 7 -6 15 -13 18 -7
3 -13 -3 -13 -14z"/>
<path d="M3965 460 c-3 -5 1 -10 9 -10 8 0 18 5 21 10 3 6 -1 10 -9 10 -8 0
-18 -4 -21 -10z"/>
<path d="M3706 413 c-4 -9 -3 -20 2 -25 6 -6 11 1 14 16 6 29 -6 35 -16 9z"/>
<path d="M1451 404 c0 -11 3 -14 6 -6 3 7 2 16 -1 19 -3 4 -6 -2 -5 -13z"/>
<path d="M6306 358 c-8 -19 19 -56 32 -44 3 4 1 10 -5 14 -6 4 -13 16 -15 27
-4 18 -6 18 -12 3z"/>
<path d="M1451 334 c0 -11 3 -14 6 -6 3 7 2 16 -1 19 -3 4 -6 -2 -5 -13z"/>
<path d="M6263 285 c-14 -15 -10 -19 31 -34 17 -7 26 -7 26 -1 0 6 -7 10 -15
10 -8 0 -15 9 -15 20 0 23 -10 25 -27 5z"/>
<path d="M5220 181 c0 -23 -4 -40 -9 -37 -5 3 -9 -14 -9 -39 -1 -24 -8 -58
-17 -75 l-16 -30 42 0 42 0 -7 57 c-4 32 -9 80 -12 108 -7 63 -14 71 -14 16z"/>
<path d="M6348 153 c-5 -49 5 -75 20 -57 11 11 3 104 -8 104 -4 0 -10 -21 -12
-47z"/>
<path d="M5201 174 c0 -11 3 -14 6 -6 3 7 2 16 -1 19 -3 4 -6 -2 -5 -13z"/>
<path d="M6241 173 c0 -12 2 -28 5 -37 8 -20 34 -21 34 -1 0 8 5 15 10 15 6 0
10 8 10 18 -1 16 -1 16 -14 0 -18 -24 -34 -22 -39 5 -4 22 -4 22 -6 0z"/>
<path d="M736 84 c-3 -9 -6 -31 -6 -50 0 -27 4 -34 20 -34 17 0 20 6 19 38 -1
31 -2 33 -8 12 -9 -33 -24 -10 -15 25 7 27 0 34 -10 9z"/>
<path d="M5102 60 c0 -14 2 -19 5 -12 2 6 2 18 0 25 -3 6 -5 1 -5 -13z"/>
<path d="M3714 25 c-1 -15 2 -25 8 -23 5 2 9 7 9 11 -1 4 -1 14 -1 22 0 26
-15 16 -16 -10z"/>
<path d="M6338 43 c-22 -5 -24 -43 -3 -43 8 0 15 9 15 19 0 11 6 22 13 24 15
7 -2 6 -25 0z"/>
<path d="M2722 20 c0 -14 2 -19 5 -12 2 6 2 18 0 25 -3 6 -5 1 -5 -13z"/>
<path d="M2820 24 c0 -8 5 -12 10 -9 6 3 10 10 10 16 0 5 -4 9 -10 9 -5 0 -10
-7 -10 -16z"/>
<path d="M6400 20 c0 -11 5 -20 10 -20 6 0 10 9 10 20 0 11 -4 20 -10 20 -5 0
-10 -9 -10 -20z"/>
</g>
</svg>
